<svg width="22" height="22" viewBox="0 0 22 22" fill="none" xmlns="http://www.w3.org/2000/svg">
<g clip-path="url(#clip0_26626_138)">
<path d="M19.3549 0.0152592C20.1196 -0.00708111 20.8852 -0.00192566 21.6499 0.0118222C22.5195 0.520494 21.5296 1.15977 21.1438 1.58939C19.714 3.17813 18.5592 4.93872 17.7876 6.94161C16.986 9.02183 16.7583 11.2318 15.9643 13.312C14.3438 17.5584 11.4447 19.5158 6.82198 18.8722C5.32518 18.6634 3.77425 18.0894 2.61169 17.1202C2.41321 17.4553 2.23277 17.8102 2.06779 18.1633C1.54108 19.2898 1.11575 20.4523 0.968823 21.6974C0.760887 22.1244 0.0949741 22.0222 0.0176424 21.6003C-0.0596894 21.1784 0.135359 20.4583 0.251356 20.0365C0.600208 18.7656 1.22058 17.5885 1.8083 16.4182C1.80143 16.3417 1.37009 15.8666 1.28502 15.7428C-0.633663 12.9709 -0.294262 9.14471 1.59349 6.44926C5.16278 1.35396 13.5816 0.185389 19.3549 0.0152592ZM20.264 1.0326C17.7902 1.08244 15.313 1.256 12.8771 1.68906C9.06202 2.367 4.47281 3.88786 2.27143 7.29905C0.723939 9.69634 0.471322 13.2046 2.41751 15.4464C4.74863 11.585 8.05671 7.96067 11.9989 5.70086C12.2893 5.53417 13.2749 4.95934 13.5455 4.98082C13.9365 5.01089 14.1333 5.47832 13.8944 5.79538C13.7337 6.00761 12.4217 6.63916 12.0737 6.84881C8.33596 9.10776 5.33721 12.476 3.1049 16.1974C4.79417 17.5876 7.05741 18.0791 9.21755 17.9339C15.2099 17.5318 15.2245 10.6836 16.8433 6.51199C17.6287 4.49019 18.8136 2.63595 20.2648 1.03174L20.264 1.0326Z" fill="white"/>
</g>
<defs>
<clipPath id="clip0_26626_138">
<rect width="21.9966" height="21.9717" fill="white"/>
</clipPath>
</defs>
</svg>
