<svg width="22" height="21" viewBox="0 0 22 21" fill="none" xmlns="http://www.w3.org/2000/svg">
<path d="M10.5168 0C4.71419 0 0 4.71419 0 10.5168C0 15.7844 3.88526 20.1437 8.94545 20.9038L9.49444 20.9869V12.6997H7.00996V11.0173H9.49444V8.78299C9.49444 7.40716 9.8246 6.50102 10.3712 5.93251C10.9177 5.364 11.7253 5.07727 12.8491 5.07727C13.7477 5.07727 14.0973 5.13172 14.4298 5.17251V6.54966H13.2599C12.5961 6.54966 12.0515 6.92001 11.7689 7.4133C11.4862 7.90659 11.3982 8.49558 11.3982 9.09577V11.0163H14.3252L14.0647 12.6988H11.3982V21L11.9406 20.9262C17.0728 20.2302 21.0336 15.8358 21.0336 10.5168C21.0336 4.71419 16.3194 0 10.5168 0ZM10.5168 0.956073C15.8027 0.956073 20.0775 5.23089 20.0775 10.5168C20.0775 15.168 16.7484 18.9933 12.3543 19.8544V13.6549H14.8845L15.44 10.0602H12.3543V9.09577C12.3543 8.59982 12.445 8.15545 12.5979 7.88854C12.7509 7.62163 12.8983 7.50574 13.2599 7.50574H15.3859V4.307L14.9713 4.25098C14.6846 4.21218 14.03 4.1212 12.8491 4.1212C11.5569 4.1212 10.4478 4.4732 9.68211 5.26961C8.91646 6.06601 8.53837 7.25188 8.53837 8.78299V10.0612H6.05389V13.6558H8.53837V19.8245C4.21485 18.9087 0.956073 15.1176 0.956073 10.5168C0.956073 5.23089 5.23089 0.956073 10.5168 0.956073Z" fill="white"/>
</svg>
