<svg width="23" height="23" viewBox="0 0 23 23" fill="none" xmlns="http://www.w3.org/2000/svg">
<path d="M7.36086 1.37988C4.0638 1.37988 1.38086 4.06283 1.38086 7.35988V15.6399C1.38086 18.9369 4.0638 21.6199 7.36086 21.6199H15.6409C18.9379 21.6199 21.6209 18.9369 21.6209 15.6399V7.35988C21.6209 4.06283 18.9379 1.37988 15.6409 1.37988H7.36086ZM7.36086 2.29988H15.6409C18.4406 2.29988 20.7009 4.5601 20.7009 7.35988V15.6399C20.7009 18.4397 18.4406 20.6999 15.6409 20.6999H7.36086C4.56108 20.6999 2.30086 18.4397 2.30086 15.6399V7.35988C2.30086 4.5601 4.56108 2.29988 7.36086 2.29988ZM17.0209 5.05988C16.7769 5.05988 16.5429 5.15681 16.3703 5.32934C16.1978 5.50188 16.1009 5.73588 16.1009 5.97988C16.1009 6.22388 16.1978 6.45789 16.3703 6.63042C16.5429 6.80295 16.7769 6.89988 17.0209 6.89988C17.2649 6.89988 17.4989 6.80295 17.6714 6.63042C17.8439 6.45789 17.9409 6.22388 17.9409 5.97988C17.9409 5.73588 17.8439 5.50188 17.6714 5.32934C17.4989 5.15681 17.2649 5.05988 17.0209 5.05988ZM11.5009 6.43988C8.71175 6.43988 6.44086 8.71077 6.44086 11.4999C6.44086 14.289 8.71175 16.5599 11.5009 16.5599C14.29 16.5599 16.5609 14.289 16.5609 11.4999C16.5609 8.71077 14.29 6.43988 11.5009 6.43988ZM11.5009 7.35988C13.7928 7.35988 15.6409 9.20798 15.6409 11.4999C15.6409 13.7918 13.7928 15.6399 11.5009 15.6399C9.20895 15.6399 7.36086 13.7918 7.36086 11.4999C7.36086 9.20798 9.20895 7.35988 11.5009 7.35988Z" fill="white"/>
</svg>
