<svg width="121" height="27" viewBox="0 0 121 27" fill="none" xmlns="http://www.w3.org/2000/svg">
<path d="M45.3927 1.10562V10.0817H43.5931V4.24438L41.1886 10.0817H39.8259L37.408 4.24438V10.0817H35.6067V1.10562H37.6516L40.5064 7.77968L43.3612 1.10562H45.3927ZM53.7957 6.36488C53.7957 6.62197 53.7789 6.85384 53.7436 7.06052H48.5365C48.5785 7.57468 48.7583 7.97627 49.0758 8.26864C49.3934 8.55932 49.7832 8.70551 50.247 8.70551C50.9157 8.70551 51.3913 8.41818 51.6735 7.84353H53.6159C53.4093 8.53076 53.0161 9.09533 52.433 9.54228C51.85 9.97916 51.1342 10.1976 50.2856 10.1976C49.5984 10.1976 48.9817 10.048 48.434 9.74728C47.8929 9.43811 47.4695 9.00628 47.1603 8.44843C46.8596 7.89057 46.71 7.24871 46.71 6.51947C46.71 5.78183 46.8596 5.13492 47.1603 4.57707C47.4594 4.0209 47.8795 3.59243 48.4205 3.29166C48.9599 2.99257 49.5816 2.84135 50.2856 2.84135C50.9628 2.84135 51.566 2.98753 52.0987 3.2799C52.638 3.57059 53.0547 3.98561 53.3454 4.52666C53.6462 5.05763 53.7957 5.67093 53.7957 6.36488ZM51.9306 5.85072C51.9222 5.38864 51.7559 5.01898 51.4299 4.7451C51.1039 4.46281 50.7057 4.31999 50.2335 4.31999C49.7883 4.31999 49.4102 4.45777 49.1027 4.73166C48.802 4.99714 48.6171 5.37016 48.5482 5.85072H51.9306ZM57.205 4.43593V7.88217C57.205 8.12245 57.2621 8.29888 57.373 8.40978C57.4923 8.51228 57.6906 8.56436 57.9645 8.56436H58.7996V10.0817H57.6688C56.1515 10.0817 55.392 9.34401 55.392 7.87041V4.43593H54.5435V2.95728H55.392V1.19636H57.205V2.95728H58.7996V4.43593H57.205ZM61.8947 4.06291C62.1265 3.68652 62.4273 3.3908 62.7953 3.17572C63.1733 2.96233 63.6018 2.85479 64.0807 2.85479V4.7451H63.6052C63.0406 4.7451 62.6105 4.87784 62.3198 5.14332C62.0375 5.40881 61.8947 5.87256 61.8947 6.53291V10.0817H60.0951V2.95728H61.8947V4.06291ZM68.4578 10.1976C67.7723 10.1976 67.1539 10.048 66.6062 9.74728C66.0567 9.43811 65.6249 9.00628 65.3073 8.44843C64.9981 7.89057 64.8435 7.24871 64.8435 6.51947C64.8435 5.79023 65.0032 5.14836 65.3191 4.59051C65.645 4.03434 66.0869 3.60419 66.6448 3.3051C67.201 2.99593 67.8227 2.84135 68.5082 2.84135C69.1955 2.84135 69.8155 2.99593 70.3733 3.3051C70.9312 3.60419 71.3681 4.03434 71.6856 4.59051C72.0116 5.14836 72.1729 5.79023 72.1729 6.51947C72.1729 7.24871 72.0066 7.89057 71.6722 8.44843C71.3462 9.00628 70.9009 9.43811 70.3347 9.74728C69.7768 10.048 69.1518 10.1976 68.4578 10.1976ZM68.4578 8.62821C68.7838 8.62821 69.0879 8.55092 69.3702 8.39634C69.6626 8.23503 69.8928 7.99475 70.0642 7.67718C70.2355 7.35961 70.3212 6.97482 70.3212 6.51947C70.3212 5.84232 70.1415 5.32311 69.7819 4.96353C69.4307 4.59555 68.9972 4.41072 68.483 4.41072C67.9689 4.41072 67.5353 4.59555 67.1842 4.96353C66.8414 5.32311 66.67 5.84232 66.67 6.51947C66.67 7.19662 66.8363 7.71919 67.1707 8.08885C67.5152 8.44843 67.9436 8.62821 68.4578 8.62821ZM75.2949 3.98561C75.5267 3.66132 75.8426 3.3908 76.2459 3.17572C76.6576 2.95392 77.1247 2.84135 77.6472 2.84135C78.2572 2.84135 78.805 2.99257 79.2939 3.29166C79.7913 3.59243 80.1811 4.0209 80.4634 4.57707C80.7558 5.12652 80.9019 5.76503 80.9019 6.49426C80.9019 7.22182 80.7558 7.87041 80.4634 8.43498C80.1811 8.99283 79.7913 9.42635 79.2939 9.73384C78.805 10.043 78.2572 10.1976 77.6472 10.1976C77.1247 10.1976 76.6626 10.0901 76.2593 9.87666C75.8645 9.66158 75.5435 9.39106 75.2949 9.06509V13.4758H73.4936V2.95728H75.2949V3.98561ZM79.062 6.49426C79.062 6.06579 78.973 5.69613 78.7915 5.38864C78.6201 5.07107 78.3899 4.83079 78.0976 4.66781C77.8153 4.50482 77.5061 4.42417 77.1717 4.42417C76.8457 4.42417 76.5383 4.50986 76.2459 4.68125C75.9636 4.84423 75.7317 5.08451 75.5519 5.40041C75.3805 5.71798 75.2949 6.091 75.2949 6.51947C75.2949 6.94794 75.3805 7.32096 75.5519 7.63853C75.7317 7.95611 75.9636 8.19974 76.2459 8.37113C76.5383 8.53412 76.8457 8.61645 77.1717 8.61645C77.5061 8.61645 77.8153 8.53076 78.0976 8.35769C78.3899 8.1863 78.6201 7.94266 78.7915 7.62509C78.973 7.30752 79.062 6.93114 79.062 6.49426ZM85.3731 10.1976C84.6876 10.1976 84.0693 10.048 83.5215 9.74728C82.972 9.43811 82.5402 9.00628 82.2226 8.44843C81.9135 7.89057 81.7589 7.24871 81.7589 6.51947C81.7589 5.79023 81.9185 5.14836 82.2344 4.59051C82.5604 4.03434 83.0023 3.60419 83.5601 3.3051C84.1163 2.99593 84.738 2.84135 85.4236 2.84135C86.1108 2.84135 86.7308 2.99593 87.2887 3.3051C87.8465 3.60419 88.2834 4.03434 88.601 4.59051C88.9269 5.14836 89.0899 5.79023 89.0899 6.51947C89.0899 7.24871 88.9219 7.89057 88.5875 8.44843C88.2615 9.00628 87.8163 9.43811 87.25 9.74728C86.6938 10.048 86.0671 10.1976 85.3731 10.1976ZM85.3731 8.62821C85.6991 8.62821 86.0033 8.55092 86.2855 8.39634C86.5779 8.23503 86.8081 7.99475 86.9795 7.67718C87.1509 7.35961 87.2366 6.97482 87.2366 6.51947C87.2366 5.84232 87.0568 5.32311 86.6972 4.96353C86.346 4.59555 85.9125 4.41072 85.3984 4.41072C84.8842 4.41072 84.4507 4.59555 84.0995 4.96353C83.7567 5.32311 83.5853 5.84232 83.5853 6.51947C83.5853 7.19662 83.7534 7.71919 84.0861 8.08885C84.4305 8.44843 84.859 8.62821 85.3731 8.62821ZM92.2102 0.566253V10.0817H90.4089V0.566253H92.2102ZM94.902 2.10875C94.5844 2.10875 94.3189 2.00961 94.1039 1.81302C93.8989 1.60802 93.7964 1.3543 93.7964 1.05521C93.7964 0.754444 93.8989 0.505763 94.1039 0.309171C94.3189 0.102497 94.5844 0 94.902 0C95.2196 0 95.48 0.102497 95.6867 0.309171C95.9001 0.505763 96.0076 0.754444 96.0076 1.05521C96.0076 1.3543 95.9001 1.60802 95.6867 1.81302C95.48 2.00961 95.2196 2.10875 94.902 2.10875ZM95.7892 2.95728V10.0817H93.9879V2.95728H95.7892ZM100.294 10.1976C99.7109 10.1976 99.1884 10.0951 98.7246 9.88842C98.2625 9.67503 97.8929 9.3877 97.619 9.02644C97.3535 8.66686 97.2073 8.26864 97.1821 7.83176H98.9951C99.0287 8.10565 99.1615 8.33249 99.3934 8.51228C99.6336 8.69207 99.9294 8.7828 100.281 8.7828C100.623 8.7828 100.89 8.71391 101.079 8.57781C101.275 8.44002 101.374 8.2636 101.374 8.0502C101.374 7.81832 101.253 7.64693 101.013 7.53604C100.783 7.41506 100.41 7.28735 99.8958 7.14957C99.3631 7.02187 98.9263 6.88745 98.5835 6.75135C98.2491 6.61356 97.9584 6.40353 97.7097 6.12124C97.4695 5.83728 97.3485 5.45585 97.3485 4.97698C97.3485 4.58211 97.4611 4.22253 97.6828 3.89656C97.9147 3.57059 98.2407 3.3135 98.6608 3.12531C99.0892 2.93544 99.5916 2.84135 100.165 2.84135C101.013 2.84135 101.692 3.05642 102.198 3.48489C102.704 3.90496 102.981 4.47457 103.033 5.19541H101.311C101.284 4.91145 101.164 4.68965 100.949 4.52666C100.744 4.35527 100.465 4.26958 100.114 4.26958C99.7882 4.26958 99.5345 4.33007 99.3547 4.44937C99.1833 4.56867 99.0976 4.7367 99.0976 4.95009C99.0976 5.19037 99.2186 5.3752 99.4572 5.50458C99.6975 5.62388 100.071 5.74822 100.576 5.87592C101.09 6.00531 101.516 6.13805 101.85 6.27583C102.184 6.41193 102.472 6.62701 102.712 6.91769C102.961 7.20166 103.088 7.57804 103.097 8.0502C103.097 8.46187 102.981 8.82985 102.751 9.15582C102.527 9.4818 102.201 9.73888 101.773 9.92707C101.353 10.1069 100.86 10.1976 100.294 10.1976ZM37.3811 14.4403V19.9953C37.3811 20.6052 37.5407 21.0723 37.8583 21.3966C38.1742 21.7142 38.6212 21.8738 39.1958 21.8738C39.7772 21.8738 40.2275 21.7142 40.5451 21.3966C40.8626 21.0723 41.0206 20.6052 41.0206 19.9953V14.4403H42.8336V19.9835C42.8336 20.7464 42.6673 21.3933 42.3329 21.9242C42.0069 22.4468 41.565 22.8417 41.0088 23.1071C40.4594 23.3726 39.8461 23.5071 39.1689 23.5071C38.5002 23.5071 37.8919 23.3726 37.3425 23.1071C36.8031 22.8417 36.3746 22.4468 36.0571 21.9242C35.7395 21.3933 35.5815 20.7464 35.5815 19.9835V14.4403H37.3811ZM48.5213 16.1895C49.3699 16.1895 50.0554 16.46 50.578 16.9993C51.1022 17.5303 51.3627 18.2764 51.3627 19.2375V23.4163H49.5631V19.4811C49.5631 18.9149 49.422 18.483 49.138 18.1823C48.8557 17.8748 48.4693 17.7202 47.982 17.7202C47.4846 17.7202 47.0897 17.8748 46.7974 18.1823C46.5151 18.483 46.374 18.9149 46.374 19.4811V23.4163H44.5744V16.292H46.374V17.1791C46.6142 16.8716 46.9184 16.6314 47.2863 16.46C47.6644 16.2802 48.0761 16.1895 48.5213 16.1895ZM52.6128 19.8289C52.6128 19.1081 52.754 18.4696 53.0362 17.9117C53.3286 17.3556 53.7218 16.9271 54.2192 16.6263C54.7165 16.3272 55.2693 16.176 55.8793 16.176C56.3413 16.176 56.7833 16.2802 57.2033 16.4852C57.6234 16.6818 57.9578 16.9489 58.2065 17.2816V13.9009H60.0329V23.4163H58.2065V22.3611C57.983 22.714 57.6704 22.9963 57.2672 23.2113C56.8639 23.4247 56.3968 23.5323 55.8658 23.5323C55.266 23.5323 54.7165 23.3777 54.2192 23.0685C53.7218 22.761 53.3286 22.3275 53.0362 21.7696C52.754 21.2051 52.6128 20.5565 52.6128 19.8289ZM58.2182 19.8541C58.2182 19.4173 58.1325 19.0442 57.9611 18.7351C57.7897 18.4192 57.5595 18.1789 57.2672 18.0159C56.9765 17.8445 56.6623 17.7588 56.3279 17.7588C55.9935 17.7588 55.686 17.8395 55.4021 18.0025C55.1198 18.1655 54.8879 18.4057 54.7081 18.7233C54.5367 19.0308 54.451 19.4005 54.451 19.8289C54.451 20.2574 54.5367 20.6338 54.7081 20.9598C54.8879 21.2773 55.1198 21.521 55.4021 21.6924C55.6944 21.8654 56.0036 21.9511 56.3279 21.9511C56.6623 21.9511 56.9765 21.8688 57.2672 21.7058C57.5595 21.5344 57.7897 21.2941 57.9611 20.9866C58.1325 20.6691 58.2182 20.291 58.2182 19.8541ZM68.4124 19.6996C68.4124 19.9566 68.3956 20.1885 68.362 20.3952H63.1532C63.1969 20.9093 63.3767 21.3109 63.6942 21.6033C64.0101 21.894 64.4016 22.0402 64.8637 22.0402C65.5325 22.0402 66.008 21.7528 66.2919 21.1782H68.2327C68.0277 21.8654 67.6328 22.43 67.0497 22.877C66.4667 23.3138 65.7509 23.5323 64.9024 23.5323C64.2168 23.5323 63.5985 23.3827 63.0507 23.0819C62.5113 22.7728 62.0862 22.3409 61.777 21.7831C61.4779 21.2252 61.3267 20.5834 61.3267 19.8541C61.3267 19.1165 61.4779 18.4696 61.777 17.9117C62.0778 17.3556 62.4979 16.9271 63.0372 16.6263C63.5783 16.3272 64.2 16.176 64.9024 16.176C65.5795 16.176 66.1844 16.3222 66.7154 16.6146C67.2547 16.9053 67.6714 17.3203 67.9621 17.8613C68.2629 18.3923 68.4124 19.0056 68.4124 19.6996ZM66.549 19.1854C66.5389 18.7233 66.3726 18.3536 66.0466 18.0798C65.7206 17.7975 65.3224 17.6547 64.8503 17.6547C64.405 17.6547 64.0286 17.7924 63.7194 18.0663C63.4187 18.3318 63.2355 18.7048 63.1666 19.1854H66.549ZM71.5277 17.3976C71.7579 17.0212 72.0586 16.7255 72.4266 16.5104C72.8047 16.297 73.2332 16.1895 73.7137 16.1895V18.0798H73.2382C72.6719 18.0798 72.2435 18.2125 71.9511 18.478C71.6688 18.7435 71.5277 19.2072 71.5277 19.8676V23.4163H69.7264V16.292H71.5277V17.3976ZM77.7161 16.176C78.2471 16.176 78.7159 16.2836 79.1175 16.4986C79.5207 16.7036 79.8383 16.9741 80.0702 17.3085V16.292H81.8832V23.4684C81.8832 24.1271 81.7505 24.7152 81.4833 25.2293C81.2178 25.7519 80.8196 26.1636 80.2886 26.4643C79.756 26.7718 79.1141 26.9264 78.3597 26.9264C77.3482 26.9264 76.5164 26.6912 75.8645 26.219C75.2209 25.7485 74.858 25.105 74.7723 24.2901H76.5584C76.6525 24.616 76.8542 24.8731 77.1633 25.063C77.4809 25.2596 77.8623 25.3587 78.3076 25.3587C78.8302 25.3587 79.2553 25.1991 79.5812 24.8815C79.9072 24.574 80.0702 24.1019 80.0702 23.4684V22.3611C79.8383 22.6955 79.5174 22.9744 79.1057 23.1979C78.7025 23.4214 78.2387 23.5323 77.7161 23.5323C77.1163 23.5323 76.5668 23.3777 76.0711 23.0685C75.5738 22.761 75.1789 22.3275 74.8865 21.7696C74.6043 21.2051 74.4631 20.5565 74.4631 19.8289C74.4631 19.1081 74.6043 18.4696 74.8865 17.9117C75.1789 17.3556 75.5687 16.9271 76.0577 16.6263C76.5551 16.3272 77.1079 16.176 77.7161 16.176ZM80.0702 19.8541C80.0702 19.4173 79.9845 19.0442 79.8131 18.7351C79.6417 18.4192 79.4098 18.1789 79.1175 18.0159C78.8268 17.8445 78.5143 17.7588 78.1799 17.7588C77.8455 17.7588 77.5363 17.8395 77.2541 18.0025C76.9701 18.1655 76.7382 18.4057 76.5584 18.7233C76.387 19.0308 76.3013 19.4005 76.3013 19.8289C76.3013 20.2574 76.387 20.6338 76.5584 20.9598C76.7382 21.2773 76.9701 21.521 77.2541 21.6924C77.5447 21.8654 77.8539 21.9511 78.1799 21.9511C78.5143 21.9511 78.8268 21.8688 79.1175 21.7058C79.4098 21.5344 79.6417 21.2941 79.8131 20.9866C79.9845 20.6691 80.0702 20.291 80.0702 19.8541ZM85.442 17.3976C85.6722 17.0212 85.973 16.7255 86.341 16.5104C86.719 16.297 87.1475 16.1895 87.6281 16.1895V18.0798H87.1509C86.5863 18.0798 86.1578 18.2125 85.8655 18.478C85.5832 18.7435 85.442 19.2072 85.442 19.8676V23.4163H83.6408V16.292H85.442V17.3976ZM92.0035 23.5323C91.318 23.5323 90.6996 23.3827 90.1519 23.0819C89.6024 22.7728 89.1706 22.3409 88.853 21.7831C88.5438 21.2252 88.3892 20.5834 88.3892 19.8541C88.3892 19.1249 88.5489 18.483 88.8664 17.9252C89.1907 17.369 89.6326 16.9389 90.1905 16.6398C90.7467 16.3306 91.3684 16.176 92.0556 16.176C92.7412 16.176 93.3629 16.3306 93.919 16.6398C94.4769 16.9389 94.9138 17.369 95.2313 17.9252C95.5573 18.483 95.7203 19.1249 95.7203 19.8541C95.7203 20.5834 95.5523 21.2252 95.2179 21.7831C94.8919 22.3409 94.4466 22.7728 93.8804 23.0819C93.3242 23.3827 92.6975 23.5323 92.0035 23.5323ZM92.0035 21.9629C92.3295 21.9629 92.6336 21.8856 92.9159 21.731C93.2083 21.5697 93.4385 21.3294 93.6115 21.0118C93.7829 20.6943 93.8686 20.3095 93.8686 19.8541C93.8686 19.177 93.6872 18.6578 93.3276 18.2982C92.9764 17.9302 92.5429 17.7454 92.0287 17.7454C91.5146 17.7454 91.081 17.9302 90.7299 18.2982C90.3871 18.6578 90.2157 19.177 90.2157 19.8541C90.2157 20.5313 90.3837 21.0539 90.7181 21.4235C91.0609 21.7831 91.4894 21.9629 92.0035 21.9629ZM103.765 16.292V23.4163H101.952V22.5157C101.721 22.8249 101.416 23.0685 101.04 23.25C100.67 23.4214 100.267 23.5071 99.8302 23.5071C99.2741 23.5071 98.7801 23.3911 98.3516 23.1592C97.9231 22.919 97.5854 22.5711 97.3367 22.1175C97.0964 21.6554 96.9755 21.1059 96.9755 20.4708V16.292H98.7767V20.2137C98.7767 20.78 98.9178 21.2168 99.2001 21.526C99.4841 21.8268 99.8689 21.9763 100.358 21.9763C100.855 21.9763 101.245 21.8268 101.527 21.526C101.811 21.2168 101.952 20.78 101.952 20.2137V16.292H103.765ZM109.49 16.1895C110.339 16.1895 111.024 16.46 111.547 16.9993C112.069 17.5303 112.331 18.2764 112.331 19.2375V23.4163H110.532V19.4811C110.532 18.9149 110.389 18.483 110.107 18.1823C109.825 17.8748 109.438 17.7202 108.949 17.7202C108.452 17.7202 108.059 17.8748 107.766 18.1823C107.484 18.483 107.343 18.9149 107.343 19.4811V23.4163H105.541V16.292H107.343V17.1791C107.583 16.8716 107.887 16.6314 108.255 16.46C108.633 16.2802 109.043 16.1895 109.49 16.1895ZM113.58 19.8289C113.58 19.1081 113.723 18.4696 114.005 17.9117C114.296 17.3556 114.691 16.9271 115.188 16.6263C115.685 16.3272 116.238 16.176 116.846 16.176C117.31 16.176 117.752 16.2802 118.172 16.4852C118.592 16.6818 118.927 16.9489 119.175 17.2816V13.9009H121V23.4163H119.175V22.3611C118.952 22.714 118.639 22.9963 118.236 23.2113C117.833 23.4247 117.366 23.5323 116.835 23.5323C116.235 23.5323 115.685 23.3777 115.188 23.0685C114.691 22.761 114.296 22.3275 114.005 21.7696C113.723 21.2051 113.58 20.5565 113.58 19.8289ZM119.187 19.8541C119.187 19.4173 119.101 19.0442 118.93 18.7351C118.759 18.4192 118.527 18.1789 118.236 18.0159C117.944 17.8445 117.631 17.7588 117.297 17.7588C116.962 17.7588 116.655 17.8395 116.371 18.0025C116.089 18.1655 115.857 18.4057 115.677 18.7233C115.506 19.0308 115.42 19.4005 115.42 19.8289C115.42 20.2574 115.506 20.6338 115.677 20.9598C115.857 21.2773 116.089 21.521 116.371 21.6924C116.663 21.8654 116.971 21.9511 117.297 21.9511C117.631 21.9511 117.944 21.8688 118.236 21.7058C118.527 21.5344 118.759 21.2941 118.93 20.9866C119.101 20.6691 119.187 20.291 119.187 19.8541Z" fill="white"/>
<path d="M0 0.826904H6.75135V23.3308H0V0.826904ZM9.32217 5.64929L14.4672 10.8413L19.6105 5.64929V12.3519L14.4672 17.544L9.32217 12.3519V5.64929ZM22.1813 0.826904H28.9327V23.3308H22.1813V0.826904Z" fill="white"/>
</svg>
