<svg width="22" height="22" viewBox="0 0 22 22" fill="none" xmlns="http://www.w3.org/2000/svg">
<g clip-path="url(#clip0_14_7446)">
<path d="M19.3544 0.0155033C20.1191 -0.00683697 20.8847 -0.00168151 21.6494 0.0120664C22.519 0.520738 21.5291 1.16001 21.1433 1.58963C19.7136 3.17837 18.5587 4.93896 17.7871 6.94185C16.9855 9.02208 16.7578 11.232 15.9638 13.3123C14.3433 17.5586 11.4442 19.516 6.82149 18.8724C5.32469 18.6636 3.77376 18.0897 2.61121 17.1204C2.41272 17.4555 2.23228 17.8104 2.06731 18.1636C1.54059 19.29 1.11527 20.4526 0.968335 21.6976C0.760398 22.1247 0.0944859 22.0224 0.0171541 21.6005C-0.0601777 21.1786 0.13487 20.4586 0.250868 20.0367C0.59972 18.7659 1.22009 17.5887 1.80781 16.4184C1.80094 16.342 1.3696 15.8668 1.28454 15.7431C-0.634151 12.9712 -0.294751 9.14495 1.593 6.44951C5.1623 1.3542 13.5811 0.185633 19.3544 0.0155033ZM20.2635 1.03285C17.7897 1.08268 15.3125 1.25625 12.8766 1.68931C9.06154 2.36725 4.47232 3.88811 2.27095 7.2993C0.723451 9.69658 0.470834 13.2049 2.41702 15.4466C4.74814 11.5852 8.05622 7.96091 11.9984 5.70111C12.2888 5.53442 13.2744 4.95958 13.5451 4.98106C13.936 5.01114 14.1328 5.47856 13.8939 5.79562C13.7332 6.00786 12.4212 6.6394 12.0732 6.84906C8.33548 9.108 5.33672 12.4762 3.10441 16.1976C4.79368 17.5879 7.05692 18.0793 9.21706 17.9341C15.2094 17.532 15.224 10.6839 16.8428 6.51223C17.6282 4.49044 18.8131 2.63619 20.2643 1.03199L20.2635 1.03285Z" fill="white"/>
</g>
<defs>
<clipPath id="clip0_14_7446">
<rect width="21.9966" height="21.9717" fill="white"/>
</clipPath>
</defs>
</svg>
