<svg width="225" height="225" viewBox="0 0 225 225" fill="none" xmlns="http://www.w3.org/2000/svg">
<path d="M51.7631 152.363L43.0454 152.959C43.4416 152.945 43.8289 153.082 44.13 153.342C47.8732 156.553 31.9871 183.475 26.6924 182.539C26.4174 182.437 26.1594 182.293 25.9268 182.114C28.77 184.957 35.7907 178.717 38.6205 175.185C42.2786 170.634 47.5956 168.593 52.8253 167.849C54.3723 163.628 53.8428 155.973 51.7631 152.363Z" fill="#E5B63C"/>
<path d="M181.104 216.991C177.276 213.78 171.662 209.827 166.643 208.357L164.215 203.55C160.305 205.579 155.944 206.58 151.541 206.461L152.689 208.354C151.796 210.887 151.232 213.524 151.01 216.2C150.972 216.682 151.086 217.163 151.334 217.578C151.582 217.992 151.953 218.319 152.396 218.513C152.689 218.643 153.007 218.709 153.327 218.71C162.026 218.731 169.617 218.816 180.416 218.838C180.576 218.838 180.735 218.802 180.879 218.732C181.024 218.662 181.15 218.559 181.249 218.432C181.347 218.306 181.415 218.158 181.448 218.001C181.48 217.844 181.476 217.681 181.436 217.526C181.383 217.318 181.267 217.131 181.104 216.991Z" fill="#E5B63C"/>
<path d="M74.7773 87.5448C75.0019 87.0683 75.3743 86.677 75.839 86.4291C76.3038 86.1812 76.8362 86.0898 77.357 86.1687C77.8778 86.2475 78.3593 86.4923 78.7299 86.8667C79.1005 87.2411 79.3403 87.7251 79.4138 88.2467C77.8153 88.034 76.2628 87.8001 74.7773 87.5448Z" stroke="#191921" stroke-width="1.125" stroke-linecap="round" stroke-linejoin="round"/>
<path fill-rule="evenodd" clip-rule="evenodd" d="M92.4635 83.9291C92.4645 83.1413 92.3101 82.3609 92.009 81.6329C91.708 80.9048 91.2662 80.2433 90.709 79.6863C90.1519 79.1292 89.4903 78.6876 88.7622 78.3867C88.0341 78.0857 87.2537 77.9314 86.4659 77.9326H43.6195C42.8318 77.9316 42.0516 78.086 41.3236 78.387C40.5956 78.688 39.9341 79.1296 39.3771 79.6867C38.8201 80.2437 38.3784 80.9051 38.0774 81.6331C37.7764 82.3611 37.622 83.1414 37.6231 83.9291V108.321C37.622 109.109 37.7764 109.889 38.0774 110.617C38.3784 111.345 38.8201 112.007 39.3771 112.564C39.9341 113.121 40.5956 113.563 41.3236 113.864C42.0516 114.165 42.8318 114.319 43.6195 114.318H86.4692C88.0597 114.318 89.5853 113.687 90.7105 112.563C91.267 112.006 91.7082 111.344 92.009 110.616C92.3097 109.889 92.4642 109.109 92.4635 108.321V104.283C87.5718 104.367 82.6801 104.097 77.8299 103.478L79.3466 106.11H50.6593L59.6546 90.5211C57.9619 89.9982 56.2524 89.5311 54.529 89.1208C51.9164 88.4928 52.3406 87.9141 52.7637 87.8234C54.3076 87.6038 55.8738 87.5895 57.4214 87.7809L57.3408 87.7104C57.0487 87.4574 56.7576 87.2055 56.4856 86.9514C53.6872 84.3343 53.8775 83.2575 58.1043 85.5052C59.2238 86.1362 60.3708 86.7174 61.5419 87.2469L62.1844 86.141L63.1985 87.9186C65.4317 88.7693 67.9939 89.5394 70.3558 89.9581C70.8829 88.9281 71.5254 87.9614 72.2711 87.0768C73.1475 87.2425 73.8236 87.3689 74.7023 87.5178C74.9264 87.0406 75.2986 86.6486 75.7635 86.4001C76.2284 86.1516 76.7612 86.06 77.2824 86.1389C77.8037 86.2178 78.2855 86.463 78.656 86.838C79.0266 87.2129 79.2661 87.6976 79.3388 88.2197C83.6932 88.8029 88.0722 89.1711 92.4635 89.3189V83.9291Z" fill="#36C484"/>
<path fill-rule="evenodd" clip-rule="evenodd" d="M203.753 55.2619C203.755 54.0752 203.404 52.9148 202.745 51.928C202.086 50.9412 201.148 50.1726 200.051 49.7199C199.323 49.4188 198.543 49.2643 197.755 49.2654H154.909C154.121 49.2639 153.341 49.418 152.613 49.7188C151.884 50.0197 151.223 50.4613 150.666 51.0184C150.109 51.5756 149.667 52.2372 149.366 52.9654C149.065 53.6936 148.911 54.474 148.913 55.2619V83.0683C152.399 83.8015 154.907 84.1182 155.245 83.9929C162.24 81.4004 168.579 77.0606 175.001 71.4883C175.712 71.656 176.396 71.924 177.032 72.2842C179.053 70.7742 182.107 67.6814 182.787 66.215C183.292 64.8572 184.083 63.624 185.106 62.5994H185.442C186.124 63.0247 185.336 66.5553 184.974 68.0228C187.108 66.5659 188.954 64.7272 190.419 62.5994C191.27 61.4509 192.227 60.2386 192.695 60.5151C193.354 60.9035 192.873 62.6979 192.63 63.4344C192.198 64.7248 191.56 65.9367 190.74 67.0232C191.66 68.147 191.205 70.1541 190.337 71.1962C191.42 71.6439 191.016 73.4696 189.965 74.7099C190.932 74.6763 191.194 76.4998 190.102 77.5498L190.092 77.5565C189.587 77.9259 188.643 78.6199 183.598 82.1862C183.743 83.0257 183.786 83.7813 183.763 84.6141C180.499 87.37 177.05 89.8002 173.467 92.0177H197.76C198.547 92.0183 199.327 91.8635 200.055 91.5623C200.783 91.261 201.444 90.8192 202.001 90.2621C202.557 89.705 202.999 89.0435 203.299 88.3156C203.6 87.5877 203.754 86.8076 203.753 86.0201V55.2619Z" fill="#36C484"/>
<path d="M176.745 89.8888C175.904 90.4575 175.053 91.0105 174.192 91.5477C174.1 91.9689 174.134 92.4082 174.292 92.8097C174.449 93.2112 174.723 93.5568 175.077 93.8027C175.431 94.0486 175.851 94.1836 176.282 94.1907C176.713 94.1978 177.137 94.0766 177.499 93.8424C177.861 93.6071 178.145 93.2694 178.314 92.8722C178.484 92.475 178.531 92.0363 178.45 91.6122C178.369 91.188 178.163 90.7976 177.86 90.4907C177.556 90.1837 177.168 89.9742 176.745 89.8888Z" fill="#6B49CC"/>
<path d="M67.2034 114.318C67.204 114.748 67.0769 115.167 66.8383 115.525C66.5998 115.882 66.2605 116.16 65.8635 116.324C65.567 116.447 65.2467 116.503 64.9258 116.488C64.605 116.472 64.2916 116.386 64.0084 116.234C63.7252 116.082 63.4793 115.87 63.2884 115.611C63.0976 115.353 62.9666 115.055 62.905 114.74C62.8427 114.425 62.8511 114.1 62.9295 113.789C63.008 113.478 63.1546 113.188 63.3587 112.94C63.5628 112.692 63.8193 112.493 64.1098 112.356C64.4003 112.219 64.7175 112.149 65.0385 112.15C65.6121 112.154 66.161 112.383 66.5663 112.789C66.9715 113.195 67.2005 113.744 67.2034 114.318Z" fill="#6B49CC"/>
<path d="M77.8365 103.494C75.1168 103.152 72.4134 102.691 69.7344 102.111C69.3051 100.757 69.0199 99.3619 68.8837 97.9481C66.8799 97.4605 64.823 97.2247 62.7607 97.2463C58.187 97.3739 59.7384 96.1829 61.3134 95.6512C63.0563 95.0769 67.2886 94.1837 65.6935 92.9926C64.6726 92.5035 63.9025 92.0972 63.3115 91.7613C62.1157 91.2848 60.8949 90.8738 59.6545 90.53L50.6592 106.109H79.3465L77.8365 103.494Z" fill="#6B49CC"/>
<path d="M156.202 56.4956V62.5996H190.376C191.227 61.4511 192.177 60.2489 192.652 60.5153C193.009 60.7157 193.1 61.4936 192.843 62.5996H196.436V56.4956H156.202Z" fill="#6B49CC"/>
<path d="M123.918 68.8512L123.854 68.915L125.13 71.4896C127.342 70.9366 128.979 70.0859 129.107 68.4673C128.816 69.9359 125.373 69.2262 123.918 68.8512Z" fill="#6B49CC"/>
<path d="M133.489 96.1571L133.362 97.8798L129.444 94.6683C130.772 95.2194 132.121 95.716 133.489 96.1571Z" fill="#6B49CC"/>
<path d="M107.291 99.6665C107.906 99.2624 108.567 98.8158 109.267 98.3054L109.693 92.01L107.291 99.6665Z" fill="#6B49CC"/>
<path d="M114.031 132.395C113.028 130.678 112.31 128.811 111.904 126.865L114.648 141.794C115.328 140.518 115.991 139.219 116.626 137.876L114.031 132.395Z" fill="#6B49CC"/>
<path d="M111.246 101.898C108.629 100.964 108.353 99.6876 110.863 98.688L111.246 101.898Z" fill="#6B49CC"/>
<path d="M131.512 98.7095L130.98 101.941C132.362 101.452 133.192 100.856 133.192 100.22C133.192 99.6665 132.596 99.1561 131.512 98.7095Z" fill="#6B49CC"/>
<path d="M51.7637 152.363L47.7451 152.618C48.7873 150.173 50.4249 150.024 51.7637 152.363Z" fill="#6B49CC"/>
<path d="M52.8272 167.845C51.8702 170.396 50.2762 170.928 48.8311 168.695C50.1426 168.322 51.4776 168.039 52.8272 167.845Z" fill="#6B49CC"/>
<path d="M26.7134 182.539C24.5553 181.651 25.359 178.014 26.6261 174.704C28.8873 168.789 33.873 160.496 38.2396 156.046C41.4914 152.732 44.9716 151.55 44.6839 155.511C44.1611 162.73 31.36 183.357 26.7134 182.539Z" fill="#6B49CC"/>
<path d="M124.6 57.8567C124.486 57.2745 124.193 56.7423 123.763 56.3344C123.332 55.9265 122.785 55.6631 122.197 55.581C122.333 55.1019 122.34 54.5955 122.218 54.1126C122.097 53.6298 121.85 53.1873 121.504 52.8296C121.157 52.4722 120.722 52.2123 120.243 52.0762C119.764 51.94 119.257 51.9323 118.774 52.0539C118.716 51.5473 118.524 51.0656 118.216 50.6588C117.909 50.252 117.498 49.9352 117.027 49.7412C116.555 49.5472 116.04 49.4838 115.535 49.5577C115.03 49.6316 114.555 49.84 114.159 50.161C113.985 49.8131 113.741 49.5047 113.442 49.2551C113.144 49.0055 112.797 48.82 112.424 48.71C112.051 48.6001 111.659 48.5682 111.273 48.6161C110.886 48.6641 110.514 48.791 110.179 48.989C109.732 49.2543 109.366 49.6382 109.122 50.0972C108.735 49.7639 108.266 49.5412 107.764 49.4525C107.262 49.3638 106.745 49.4124 106.268 49.5933C105.791 49.7741 105.371 50.0804 105.054 50.4798C104.737 50.8792 104.533 51.3569 104.465 51.8624C103.985 51.7254 103.478 51.7172 102.995 51.8386C102.511 51.96 102.068 52.2068 101.71 52.5539C101.352 52.9011 101.092 53.3365 100.956 53.8163C100.819 54.296 100.812 54.8031 100.934 55.2866C100.429 55.3463 99.9491 55.54 99.5439 55.8477C99.1387 56.1554 98.8232 56.5659 98.6301 57.0366C98.437 57.5073 98.3734 58.0211 98.4457 58.5247C98.5181 59.0283 98.7238 59.5034 99.0416 59.9007C98.5756 60.1328 98.1826 60.4888 97.9058 60.9297C97.6289 61.3706 97.479 61.8792 97.4724 62.3998C97.4658 62.9203 97.6028 63.4326 97.8684 63.8804C98.134 64.3281 98.5178 64.694 98.9778 64.9379C98.64 65.3226 98.4127 65.7917 98.3201 66.2953C98.2275 66.7989 98.273 67.3182 98.4519 67.7979C98.6308 68.2777 98.9363 68.7001 99.3359 69.0201C99.7356 69.3402 100.215 69.546 100.722 69.6157C100.585 70.0952 100.577 70.6023 100.698 71.086C100.819 71.5697 101.066 72.0128 101.413 72.3708C101.76 72.7288 102.196 72.9889 102.676 73.1251C103.155 73.2612 103.662 73.2685 104.146 73.1462C104.203 73.653 104.395 74.1351 104.702 74.5421C105.009 74.949 105.421 75.2659 105.892 75.4594C106.364 75.653 106.879 75.7161 107.384 75.6421C107.888 75.5682 108.364 75.3599 108.76 75.0391C108.993 75.5044 109.349 75.8968 109.79 76.1731C110.231 76.4494 110.739 76.599 111.259 76.6056C111.779 76.6122 112.291 76.4755 112.739 76.2104C113.187 75.9454 113.553 75.5622 113.797 75.1029C114.182 75.44 114.651 75.6666 115.155 75.7588C115.658 75.8509 116.177 75.8052 116.656 75.6265C117.136 75.4477 117.558 75.1425 117.878 74.7434C118.198 74.3442 118.405 73.8658 118.475 73.3589C118.881 73.4733 119.306 73.4963 119.722 73.4265C120.138 73.3566 120.532 73.1955 120.878 72.9548C121.551 70.0385 122.055 67.086 122.388 64.1118C118.918 61.9849 120.644 59.0746 122.452 60.8577C123.494 61.8999 123.303 59.7518 122.665 58.1992C123.279 57.9517 123.938 57.835 124.6 57.8567Z" fill="#191921"/>
<path d="M14.0176 218.841H210.983" stroke="#191921" stroke-width="1.125" stroke-linecap="round" stroke-linejoin="round"/>
<path d="M137.36 123.527C138.782 123.527 140.145 122.962 141.151 121.957C142.157 120.952 142.722 119.589 142.723 118.167V98.4753" stroke="#191921" stroke-width="1.125" stroke-linecap="round" stroke-linejoin="round"/>
<path d="M98.4434 103.791V118.146C98.4451 119.396 98.8803 120.606 99.6747 121.57" stroke="#191921" stroke-width="1.125" stroke-linecap="round" stroke-linejoin="round"/>
<path d="M87.959 142.241V114.126" stroke="#191921" stroke-width="1.125" stroke-linecap="round" stroke-linejoin="round"/>
<path d="M133.872 174.118H96.5973C94.8826 174.122 93.2058 173.613 91.7815 172.659C90.3572 171.704 89.25 170.346 88.6016 168.759" stroke="#191921" stroke-width="1.125" stroke-linecap="round" stroke-linejoin="round"/>
<path d="M153.203 99.9004V165.463C153.207 165.862 153.178 166.26 153.118 166.654" stroke="#191921" stroke-width="1.125" stroke-linecap="round" stroke-linejoin="round"/>
<path d="M153.139 49.5208C152.856 47.462 151.823 45.5803 150.237 44.2373C148.651 42.8942 146.625 42.1846 144.548 42.2448H96.614C95.4955 42.2059 94.3806 42.3918 93.3352 42.7915C92.2899 43.1913 91.3355 43.7968 90.5284 44.5721C89.7213 45.3475 89.078 46.2769 88.6367 47.3053C88.1953 48.3338 87.9649 49.4404 87.959 50.5595V78.1241" stroke="#191921" stroke-width="1.125" stroke-linecap="round" stroke-linejoin="round"/>
<path d="M92.4635 89.3402V83.9291C92.4645 83.1413 92.3101 82.3609 92.009 81.6329C91.708 80.9048 91.2662 80.2433 90.709 79.6863C90.1519 79.1292 89.4903 78.6876 88.7622 78.3867C88.0341 78.0857 87.2537 77.9314 86.4659 77.9326H43.6195C42.8318 77.9316 42.0516 78.086 41.3236 78.387C40.5956 78.688 39.9341 79.1296 39.3771 79.6867C38.8201 80.2437 38.3784 80.9051 38.0774 81.6331C37.7764 82.3611 37.622 83.1414 37.6231 83.9291V108.321C37.622 109.109 37.7764 109.889 38.0774 110.617C38.3784 111.345 38.8201 112.007 39.3771 112.564C39.9341 113.121 40.5956 113.563 41.3236 113.864C42.0516 114.165 42.8318 114.319 43.6195 114.318H62.8627M92.4635 104.217V108.321C92.4645 109.109 92.3102 109.889 92.0094 110.617C91.7087 111.344 91.2673 112.006 90.7106 112.563C90.154 113.12 89.4929 113.561 88.7653 113.863C88.0377 114.164 87.2578 114.319 86.4703 114.318H67.1656" stroke="#191921" stroke-width="1.125" stroke-linecap="round" stroke-linejoin="round"/>
<path d="M174.214 91.5677C174.189 91.7157 174.175 91.8654 174.171 92.0154C174.168 92.2994 174.221 92.5813 174.327 92.8445C174.434 93.1078 174.592 93.3473 174.792 93.5491C174.991 93.7509 175.229 93.9111 175.492 94.0202C175.754 94.1293 176.035 94.1853 176.319 94.1848C176.894 94.1821 177.444 93.9527 177.85 93.5465C178.256 93.1402 178.486 92.59 178.488 92.0154C178.489 91.5196 178.317 91.0389 178.003 90.6553C177.689 90.2716 177.252 90.0086 176.766 89.911" stroke="#191921" stroke-width="1.125" stroke-linecap="round" stroke-linejoin="round"/>
<path d="M61.5684 87.2045L62.184 86.1411L63.2049 87.9064" stroke="#191921" stroke-width="1.125" stroke-linecap="round" stroke-linejoin="round"/>
<path d="M74.7773 87.5448C75.0019 87.0683 75.3743 86.677 75.839 86.4291C76.3038 86.1812 76.8362 86.0898 77.357 86.1687C77.8778 86.2475 78.3593 86.4923 78.7299 86.8667C79.1005 87.2411 79.3403 87.7251 79.4138 88.2467C77.8153 88.034 76.2628 87.8001 74.7773 87.5448Z" stroke="#191921" stroke-width="1.125" stroke-linecap="round" stroke-linejoin="round"/>
<path d="M77.8365 103.515L79.3465 106.109H50.6592L59.6545 90.521" stroke="#191921" stroke-width="1.125" stroke-linecap="round" stroke-linejoin="round"/>
<path d="M148.908 83.0705V55.263C148.906 54.0764 149.256 52.916 149.915 51.9292C150.574 50.9424 151.512 50.1738 152.608 49.721C153.336 49.4196 154.116 49.2648 154.904 49.2654H197.755C198.942 49.2634 200.102 49.6143 201.089 50.2734C202.076 50.9325 202.845 51.8702 203.298 52.9672C203.599 53.6948 203.754 54.475 203.753 55.263V86.0133C203.754 87.2 203.404 88.3605 202.744 89.3473C202.085 90.334 201.148 91.1026 200.051 91.5554C199.323 91.8565 198.543 92.0109 197.755 92.0098H178.543" stroke="#191921" stroke-width="1.125" stroke-linecap="round" stroke-linejoin="round"/>
<path d="M158.328 49.2654C158.316 46.0469 157.03 42.9643 154.75 40.6924C152.47 38.4206 149.383 37.1445 146.164 37.1437H94.8073C93.2097 37.1431 91.6277 37.4573 90.1516 38.0684C88.6755 38.6795 87.3342 39.5755 86.2046 40.7052C85.0749 41.8349 84.1789 43.1761 83.5678 44.6522C82.9567 46.1283 82.6425 47.7103 82.6431 49.3079V77.9326" stroke="#191921" stroke-width="1.125" stroke-linecap="round" stroke-linejoin="round"/>
<path d="M82.6431 148.088V114.318" stroke="#191921" stroke-width="1.125" stroke-linecap="round" stroke-linejoin="round"/>
<path d="M136.212 179.052H94.8063C92.0119 179.053 89.3026 178.091 87.1339 176.328C84.9653 174.566 83.4696 172.111 82.8984 169.375" stroke="#191921" stroke-width="1.125" stroke-linecap="round" stroke-linejoin="round"/>
<path d="M158.329 99.9004V166.888C158.33 169.528 157.471 172.096 155.883 174.203" stroke="#191921" stroke-width="1.125" stroke-linecap="round" stroke-linejoin="round"/>
<path d="M190.397 62.5996H156.202V56.4956H196.436V62.5996H192.865" stroke="#191921" stroke-width="1.125" stroke-linecap="round" stroke-linejoin="round"/>
<path d="M185.442 65.896H187.611" stroke="#191921" stroke-width="1.125" stroke-linecap="round" stroke-linejoin="round"/>
<path d="M156.202 83.6101V65.896H182.933" stroke="#191921" stroke-width="1.125" stroke-linecap="round" stroke-linejoin="round"/>
<path d="M191.482 65.896H196.438V84.7799H183.593" stroke="#191921" stroke-width="1.125" stroke-linecap="round" stroke-linejoin="round"/>
<path d="M176.319 94.1792V116.487C176.319 118.381 175.947 120.256 175.222 122.005C174.498 123.754 173.436 125.344 172.097 126.683C170.758 128.022 169.169 129.084 167.419 129.808C165.67 130.533 163.795 130.906 161.902 130.906H140.168" stroke="#191921" stroke-width="1.125" stroke-linecap="round" stroke-linejoin="round"/>
<path d="M95.5528 130.895H79.4786C75.6538 130.892 71.9867 129.37 69.2832 126.665C66.5797 123.959 65.061 120.291 65.061 116.466" stroke="#191921" stroke-width="1.125" stroke-linecap="round" stroke-linejoin="round"/>
<path d="M70 176V184" stroke="#191921" stroke-width="0.9" stroke-linecap="round" stroke-linejoin="round"/>
<path d="M74 180H66" stroke="#191921" stroke-width="0.9" stroke-linecap="round" stroke-linejoin="round"/>
<path d="M129.151 68.4637C128.789 69.8887 125.681 69.2551 124.622 69.0234L123.838 68.8387C124.51 70.3454 125.148 71.4883 125.148 71.4883" stroke="#191921" stroke-width="1.125" stroke-linecap="round" stroke-linejoin="round"/>
<path d="M134.042 78.6133C131.92 77.8401 129.865 76.894 127.897 75.7846C127.338 75.4862 126.844 75.0781 126.446 74.5848C126.048 74.0916 125.753 73.5231 125.579 72.9134C125.429 72.4444 125.302 71.9553 125.152 71.4862C127.075 71.0038 128.874 70.2919 129.151 68.4639C129.487 66.2632 127.632 62.9309 124.664 57.8791C123.983 57.8468 123.303 57.955 122.665 58.197C123.282 59.7496 123.498 61.891 122.452 60.8555C120.65 59.0645 118.922 61.9827 122.389 64.1096C122.218 65.8748 121.941 67.5113 121.644 69.1703C121.481 70.4491 121.225 71.7143 120.879 72.956C120.465 73.8142 119.862 74.5667 119.114 75.1564C118.366 75.7461 117.493 76.1574 116.562 76.3589C114.905 76.8393 113.323 77.5475 111.861 78.4633C120.665 82.8445 134.024 78.6133 134.024 78.6133H134.042Z" stroke="#191921" stroke-width="1.125" stroke-linecap="round" stroke-linejoin="round"/>
<path d="M133.362 97.88L129.444 94.6472C130.761 95.2049 132.102 95.7017 133.464 96.136" stroke="#191921" stroke-width="1.125" stroke-linecap="round" stroke-linejoin="round"/>
<path d="M133.192 100.219C133.397 97.4119 133.335 98.332 133.468 96.1358C140.652 98.3173 148.069 99.6396 155.564 100.075C157.206 100.183 158.848 99.8608 160.328 99.1391C168.672 95.0746 176.656 90.6139 183.763 84.6141C183.916 78.9187 179.887 72.6737 175.001 71.4883C168.579 77.0605 162.24 81.4003 155.245 83.9928C154.496 84.2704 143.132 82.382 134.021 78.6131" stroke="#191921" stroke-width="1.125" stroke-linecap="round" stroke-linejoin="round"/>
<path d="M107.291 99.6665L109.693 92.01L109.267 98.3054" stroke="#191921" stroke-width="1.125" stroke-linecap="round" stroke-linejoin="round"/>
<path d="M109.122 100.161L109.267 98.3053C105.749 100.931 101.777 102.884 97.5497 104.068C88.2339 104.695 78.8761 104.037 69.74 102.111C68.0609 96.7538 68.5691 91.4984 72.2709 87.0768C80.403 88.6179 88.6616 89.394 96.9385 89.3951C102.936 85.8646 107.231 81.2919 111.868 78.4633" stroke="#191921" stroke-width="1.125" stroke-linecap="round" stroke-linejoin="round"/>
<path d="M111.82 106.811C111.82 106.811 101.231 113.403 97.0441 128.673L84.2832 147.748C74.1058 149.996 62.3199 150.752 49.7314 150.693" stroke="#191921" stroke-width="1.125" stroke-linecap="round" stroke-linejoin="round"/>
<path d="M114.627 141.815L111.883 126.886" stroke="#191921" stroke-width="1.125" stroke-linecap="round" stroke-linejoin="round"/>
<path d="M113.521 115.083C112.099 117.722 111.385 120.684 111.449 123.68C111.512 126.677 112.351 129.606 113.883 132.182C113.986 132.354 116.626 137.881 116.626 137.881" stroke="#191921" stroke-width="1.125" stroke-linecap="round" stroke-linejoin="round"/>
<path d="M52.8276 167.845C47.5967 168.588 42.2763 170.628 38.6227 175.182C35.1101 179.559 29.1259 184.202 26.1909 182.331" stroke="#191921" stroke-width="1.125" stroke-linecap="round" stroke-linejoin="round"/>
<path d="M110.884 98.688L111.82 106.811C117.84 105.258 124.157 105.258 130.177 106.811L131.53 98.7093" stroke="#191921" stroke-width="1.125" stroke-linecap="round" stroke-linejoin="round"/>
<path d="M130.98 101.941C132.362 101.452 133.192 100.857 133.192 100.219C133.192 99.6662 132.597 99.1546 131.533 98.7091C126.9 96.7681 115.563 96.776 110.884 98.6879C110.123 98.9991 108.927 99.6214 109.147 100.418C109.297 100.964 110.051 101.482 111.245 101.898" stroke="#191921" stroke-width="1.125" stroke-linecap="round" stroke-linejoin="round"/>
<path d="M188.207 69.5159C188.675 69.048 190.057 67.8156 190.738 67.0287" stroke="#191921" stroke-width="1.125" stroke-linecap="round" stroke-linejoin="round"/>
<path d="M183.104 69.1913C183.784 68.7872 184.422 68.4078 184.974 68.0227" stroke="#191921" stroke-width="1.125" stroke-linecap="round" stroke-linejoin="round"/>
<path d="M190.335 71.196L188.228 73.0408" stroke="#191921" stroke-width="1.125" stroke-linecap="round" stroke-linejoin="round"/>
<path d="M188.377 76.1675C188.377 76.1675 189.587 75.0257 189.962 74.7123" stroke="#191921" stroke-width="1.125" stroke-linecap="round" stroke-linejoin="round"/>
<path d="M50.6582 170.102C62.9768 170.709 75.3244 170.303 87.5763 168.886C90.298 168.582 92.9305 167.732 95.3165 166.387C97.7024 165.043 99.793 163.231 101.463 161.061C106.358 155.007 110.76 148.571 114.627 141.815L116.626 137.881L149.227 206.4C156.188 206.588 161.324 205.828 167.069 201.743C151.799 167.593 146.164 142.347 130.172 106.811C125.485 106.811 120.563 106.104 118.688 105.75C116.625 105.562 111.938 105.862 109.688 108.562C106.875 111.937 101.25 116.438 99.5628 120.938C98.2128 124.538 96.1694 128.063 95.3165 129.375L83.8128 147.938" stroke="#191921" stroke-width="1.125" stroke-linecap="round" stroke-linejoin="round"/>
<path d="M164.215 203.55L166.64 208.356C171.659 209.824 177.291 213.758 181.101 216.99C181.266 217.129 181.384 217.314 181.439 217.522C181.494 217.73 181.483 217.95 181.409 218.152C181.335 218.354 181.201 218.529 181.025 218.652C180.849 218.775 180.639 218.841 180.424 218.84C169.621 218.83 162.029 218.729 153.335 218.713C153.014 218.711 152.697 218.644 152.404 218.515C152.111 218.386 151.847 218.198 151.629 217.963C151.411 217.728 151.245 217.45 151.14 217.147C151.034 216.844 150.993 216.523 151.018 216.203C151.247 213.519 151.819 210.875 152.718 208.335L151.549 206.442" stroke="#191921" stroke-width="1.125" stroke-linecap="round" stroke-linejoin="round"/>
<path d="M48.8303 168.693C49.6441 169.951 50.5093 170.331 51.275 169.968C53.2798 169.02 53.7208 164.035 53.7208 161.782C53.7208 158.448 52.7022 151.123 49.9261 150.705C49.1157 150.583 48.3366 151.233 47.7456 152.616" stroke="#191921" stroke-width="1.125" stroke-linecap="round" stroke-linejoin="round"/>
<path d="M42.003 153.294C40.6106 153.996 39.34 154.917 38.2396 156.021C34.2701 160.15 31.0335 164.925 28.669 170.141C26.484 174.759 25.1138 179.271 25.6075 181.348C25.9433 182.779 27.1186 182.824 28.4149 182.122C34.7662 178.683 47.5181 156.264 44.1309 153.342C43.8258 153.113 43.4567 152.985 43.0752 152.976C42.6938 152.967 42.3181 153.078 42.003 153.294Z" stroke="#191921" stroke-width="1.125" stroke-linecap="round" stroke-linejoin="round"/>
<path d="M125.133 105.875C125.133 105.875 124.282 115.892 126.476 120.911C128.67 125.93 160.225 205.209 160.225 205.209" stroke="#191921" stroke-width="1.125" stroke-linecap="round" stroke-linejoin="round"/>
<path d="M113.649 131.905C108.883 139.905 103.701 147.65 98.1243 155.107C94.5803 159.621 88.8525 160.875 83.1325 161.295C73.3536 162.024 63.5401 162.188 53.7422 161.784" stroke="#191921" stroke-width="1.125" stroke-linecap="round" stroke-linejoin="round"/>
<path d="M67.2034 114.318C67.204 114.747 67.0769 115.167 66.8383 115.524C66.5998 115.882 66.2605 116.16 65.8635 116.324C65.567 116.447 65.2467 116.503 64.9258 116.488C64.605 116.472 64.2916 116.385 64.0084 116.234C63.7252 116.082 63.4793 115.869 63.2884 115.611C63.0976 115.353 62.9666 115.055 62.905 114.74C62.8427 114.425 62.8511 114.1 62.9295 113.789C63.008 113.477 63.1546 113.187 63.3587 112.94C63.5628 112.692 63.8193 112.492 64.1098 112.356C64.4003 112.219 64.7175 112.149 65.0385 112.15C65.6121 112.153 66.161 112.383 66.5663 112.789C66.9715 113.195 67.2005 113.744 67.2034 114.318Z" stroke="#191921" stroke-width="1.125" stroke-linecap="round" stroke-linejoin="round"/>
<path d="M21.2476 95.7955L25.012 101.113L29.4347 93.4135" stroke="#191921" stroke-width="1.125" stroke-linecap="round" stroke-linejoin="round"/>
<path d="M122.665 58.1968C123.303 59.7494 123.498 61.8908 122.452 60.8554C120.65 59.0644 118.922 61.9826 122.389 64.1094C122.218 65.8534 121.941 67.5123 121.644 69.1701C121.477 70.4482 121.221 71.7132 120.879 72.9558C120.404 73.2854 119.84 73.4634 119.262 73.4662C118.998 73.4633 118.734 73.4276 118.479 73.3599C118.427 73.7395 118.299 74.1048 118.102 74.4334C117.905 74.7621 117.643 75.0473 117.333 75.2719C117.023 75.4965 116.67 75.6558 116.296 75.74C115.922 75.8243 115.535 75.8318 115.159 75.7621C114.655 75.6693 114.186 75.4418 113.801 75.1039C113.557 75.5638 113.191 75.9477 112.743 76.2133C112.296 76.4788 111.783 76.6159 111.263 76.6093C110.742 76.6027 110.233 76.4527 109.793 76.1759C109.352 75.8991 108.996 75.5061 108.764 75.0401C108.367 75.3601 107.892 75.5677 107.387 75.6413C106.883 75.7148 106.368 75.6516 105.897 75.4582C105.425 75.2647 105.014 74.9482 104.707 74.5417C104.4 74.1352 104.207 73.6536 104.149 73.1472C103.666 73.2691 103.159 73.2616 102.68 73.1253C102.2 72.989 101.765 72.7289 101.418 72.371C101.071 72.0131 100.824 71.5702 100.702 71.0867C100.581 70.6032 100.589 70.0962 100.725 69.6167C100.218 69.5466 99.7396 69.3406 99.3402 69.0205C98.9408 68.7004 98.6354 68.2781 98.4566 67.7985C98.2778 67.3189 98.2322 66.7998 98.3246 66.2963C98.4169 65.7928 98.6439 65.3237 98.9813 64.9388C98.5217 64.6947 98.1382 64.3288 97.8729 63.881C97.6076 63.4333 97.4707 62.9212 97.4773 62.4008C97.4839 61.8804 97.6337 61.3719 97.9103 60.931C98.1868 60.4902 98.5795 60.134 99.0451 59.9016C98.7281 59.5041 98.523 59.0291 98.451 58.5257C98.3791 58.0224 98.4429 57.5089 98.6359 57.0385C98.8289 56.568 99.144 56.1577 99.5488 55.8499C99.9535 55.542 100.433 55.3479 100.938 55.2876C100.816 54.8041 100.823 54.297 100.959 53.8172C101.095 53.3375 101.355 52.9021 101.713 52.5549C102.071 52.2077 102.515 51.961 102.998 51.8396C103.482 51.7182 103.989 51.7264 104.469 51.8634C104.537 51.3581 104.741 50.8807 105.058 50.4815C105.376 50.0823 105.795 49.7762 106.272 49.5954C106.748 49.4146 107.265 49.3659 107.768 49.4544C108.27 49.5429 108.739 49.7653 109.125 50.0982C109.369 49.6385 109.735 49.255 110.183 48.9897C110.631 48.7244 111.143 48.5875 111.663 48.5941C112.184 48.6007 112.692 48.7505 113.133 49.0271C113.574 49.3036 113.93 49.6963 114.162 50.162C114.559 49.8429 115.034 49.6361 115.538 49.563C116.042 49.49 116.556 49.5533 117.027 49.7465C117.498 49.9397 117.908 50.2556 118.216 50.6614C118.523 51.0672 118.716 51.548 118.774 52.0537C119.257 51.9321 119.764 51.9399 120.243 52.0762C120.723 52.2126 121.158 52.4726 121.504 52.8303C121.851 53.188 122.098 53.6307 122.22 54.1139C122.341 54.5971 122.333 55.1038 122.197 55.5831C122.785 55.6649 123.332 55.9282 123.763 56.3361C124.194 56.7441 124.487 57.2764 124.6 57.8588C123.939 57.8356 123.28 57.9508 122.665 58.1968Z" stroke="#191921" stroke-width="1.125" stroke-linecap="round" stroke-linejoin="round"/>
<path d="M180.594 32.8911L172.066 41.3972" stroke="#191921" stroke-width="1.125" stroke-linecap="round" stroke-linejoin="round"/>
<path d="M180.573 41.4185L172.088 32.8911" stroke="#191921" stroke-width="1.125" stroke-linecap="round" stroke-linejoin="round"/>
<path d="M192.63 63.4345C192.872 62.698 193.354 60.9036 192.695 60.5152C192.227 60.2387 191.27 61.451 190.419 62.5995C188.954 64.7273 187.108 66.566 184.974 68.0228C185.336 66.5553 186.124 63.0248 185.442 62.5995H185.106C184.082 63.6241 183.291 64.8572 182.787 66.2151C182.106 67.6814 179.053 70.7743 177.032 72.2843C178.779 73.3607 180.27 74.8037 181.404 76.5134C182.537 78.2231 183.286 80.1587 183.597 82.1863C188.675 78.5965 189.599 77.9181 190.102 77.5498C191.193 76.4999 190.931 74.6764 189.964 74.71C191.015 73.4697 191.42 71.644 190.337 71.1963C191.205 70.1541 191.66 68.1471 190.74 67.0232C191.559 65.9368 192.198 64.7249 192.63 63.4345Z" stroke="#191921" stroke-width="1.125" stroke-linecap="round" stroke-linejoin="round"/>
<path d="M68.8848 97.9604C66.8803 97.4701 64.8231 97.2287 62.7596 97.2418C58.1869 97.3716 59.7373 96.1717 61.3133 95.6467C63.054 95.0657 67.2886 94.1792 65.6935 92.9882C64.6524 92.499 63.9025 92.0927 63.3114 91.7568C60.4378 90.7077 57.5052 89.8275 54.5288 89.1207C51.9162 88.4928 52.3404 87.914 52.7636 87.8234C54.3074 87.6037 55.8736 87.5894 57.4213 87.7808C57.1022 87.5043 56.7832 87.229 56.4855 86.9514C53.687 84.3343 53.8773 83.2574 58.1041 85.5051C61.9022 87.6786 66.0468 89.1805 70.3557 89.9446" stroke="#191921" stroke-width="1.125" stroke-linecap="round" stroke-linejoin="round"/>
<path d="M67.8627 93.9666C67.1336 93.6539 66.4104 93.3278 65.6934 92.9883" stroke="#191921" stroke-width="1.125" stroke-linecap="round" stroke-linejoin="round"/>
<path d="M57.4268 87.7786C58.6581 88.786 62.6878 91.3986 63.3169 91.7546" stroke="#191921" stroke-width="1.125" stroke-linecap="round" stroke-linejoin="round"/>
<path d="M43.1484 152.965L51.7676 152.363" stroke="#191921" stroke-width="1.125" stroke-linecap="round" stroke-linejoin="round"/>
<path d="M185 173C190.523 173 195 168.523 195 163C195 157.477 190.523 153 185 153C179.477 153 175 157.477 175 163C175 168.523 179.477 173 185 173Z" stroke="black" stroke-linecap="round" stroke-linejoin="round"/>
<path d="M185 157V163L189 165" stroke="black" stroke-linecap="round" stroke-linejoin="round"/>
<path d="M53 35C58.5228 35 63 30.5228 63 25C63 19.4772 58.5228 15 53 15C47.4772 15 43 19.4772 43 25C43 30.5228 47.4772 35 53 35Z" stroke="black" stroke-linecap="round" stroke-linejoin="round"/>
<path d="M53 21V25" stroke="black" stroke-width="1.5" stroke-linecap="round" stroke-linejoin="round"/>
<path d="M53 29H53.01" stroke="black" stroke-width="1.5" stroke-linecap="round" stroke-linejoin="round"/>
<rect x="42.5" y="182.5" width="22" height="14" rx="2.5" stroke="#191921"/>
<path d="M60.8076 187.052C60.6217 186.968 59.6781 186.564 58.7306 186.994C57.4275 187.585 57.3242 189.204 57.3076 189.465C57.2935 189.686 57.2032 191.556 58.5768 192.254C59.5209 192.733 60.516 192.332 60.7018 192.254" stroke="black" stroke-width="0.8" stroke-linecap="round" stroke-linejoin="round"/>
<path d="M56.2114 188.821H59.5383" stroke="black" stroke-width="0.8" stroke-linecap="round" stroke-linejoin="round"/>
<path d="M59.202 190.465H56.1924" stroke="black" stroke-width="0.8" stroke-linecap="round" stroke-linejoin="round"/>
</svg>
