<?xml version="1.0" encoding="UTF-8"?>
<svg id="Layer_1" xmlns="http://www.w3.org/2000/svg" version="1.1" viewBox="0 0 812.5 898.8">
  <!-- Generator: Adobe Illustrator 29.7.1, SVG Export Plug-In . SVG Version: 2.1.1 Build 8)  -->
  <defs>
    <style>
      .st0 {
        fill: #36c484;
        fill-rule: evenodd;
      }

      .st1 {
        fill: #191921;
      }

      .st2 {
        stroke-width: 1.1px;
      }

      .st2, .st3, .st4, .st5, .st6 {
        stroke-linecap: round;
        stroke-linejoin: round;
      }

      .st2, .st3, .st4, .st5, .st6, .st7 {
        fill: none;
      }

      .st2, .st3, .st7 {
        stroke: #191921;
      }

      .st3 {
        stroke-width: .9px;
      }

      .st4, .st5, .st6 {
        stroke: #000;
      }

      .st8 {
        fill: #6b49cc;
      }

      .st5 {
        stroke-width: .8px;
      }

      .st6 {
        stroke-width: 1.5px;
      }

      .st9 {
        fill: #e5b63c;
      }
    </style>
  </defs>
  <path class="st9" d="M186.1,582.3l-31.6,2.2c1.4,0,2.8.4,3.9,1.4,13.6,11.6-44,109.3-63.2,105.9-1-.4-1.9-.9-2.8-1.5,10.3,10.3,35.8-12.3,46-25.1,13.3-16.5,32.5-23.9,51.5-26.6,5.6-15.3,3.7-43.1-3.9-56.1v-.2Z"/>
  <path class="st9" d="M655,816.6c-13.9-11.6-34.2-26-52.4-31.3l-8.8-17.4c-14.2,7.4-30,11-46,10.6l4.2,6.9c-3.2,9.2-5.3,18.7-6.1,28.4-.1,1.7.3,3.5,1.2,5s2.2,2.7,3.9,3.4c1.1.5,2.2.7,3.4.7,31.5,0,59.1.4,98.2.5.6,0,1.2-.1,1.7-.4s1-.6,1.3-1.1c.4-.5.6-1,.7-1.6s.1-1.2,0-1.7c-.2-.8-.6-1.4-1.2-1.9h-.1Z"/>
  <path class="st2" d="M269.5,347.3c.8-1.7,2.2-3.1,3.8-4,1.7-.9,3.6-1.2,5.5-.9,1.9.3,3.6,1.2,5,2.5,1.3,1.4,2.2,3.1,2.5,5-5.8-.8-11.4-1.6-16.8-2.5h0Z"/>
  <path class="st0" d="M333.7,334.2c0-2.9-.6-5.7-1.6-8.3-1.1-2.6-2.7-5-4.7-7.1-2-2-4.4-3.6-7.1-4.7-2.6-1.1-5.5-1.7-8.3-1.6h-155.3c-2.9,0-5.7.6-8.3,1.6s-5,2.7-7.1,4.7c-2,2-3.6,4.4-4.7,7.1-1.1,2.6-1.7,5.5-1.6,8.3v88.4c0,2.9.6,5.7,1.6,8.3,1.1,2.6,2.7,5,4.7,7.1,2,2,4.4,3.6,7.1,4.7,2.6,1.1,5.5,1.6,8.3,1.6h155.2c5.8,0,11.3-2.3,15.4-6.4s3.6-4.4,4.7-7.1c1.1-2.6,1.7-5.5,1.6-8.3v-14.6c-17.7.3-35.5-.7-53.1-2.9l5.5,9.5h-104l32.6-56.5c-6.1-1.9-12.3-3.6-18.6-5.1-9.5-2.3-7.9-4.4-6.4-4.7,5.6-.8,11.3-.8,16.9-.2l-.3-.3c-1.1-.9-2.1-1.8-3.1-2.8-10.1-9.5-9.5-13.4,5.9-5.2,4.1,2.3,8.2,4.4,12.5,6.3l2.3-4,3.7,6.4c8.1,3.1,17.4,5.9,26,7.4,1.9-3.7,4.2-7.2,6.9-10.4,3.2.6,5.6,1.1,8.8,1.6.8-1.7,2.2-3.2,3.8-4.1,1.7-.9,3.6-1.2,5.5-.9s3.6,1.2,5,2.5c1.3,1.4,2.2,3.1,2.5,5,15.8,2.1,31.7,3.4,47.6,4v-19.3h.1Z"/>
  <path class="st0" d="M737.2,230.3c0-4.3-1.3-8.5-3.7-12.1-2.4-3.6-5.8-6.4-9.8-8-2.6-1.1-5.5-1.7-8.3-1.6h-155.3c-2.9,0-5.7.6-8.3,1.6-2.6,1.1-5,2.7-7.1,4.7-2,2-3.6,4.4-4.7,7.1-1.1,2.6-1.6,5.5-1.6,8.3v100.8c12.6,2.7,21.7,3.8,23,3.4,25.4-9.4,48.3-25.1,71.6-45.3,2.6.6,5.1,1.6,7.4,2.9,7.3-5.5,18.4-16.7,20.9-22,1.8-4.9,4.7-9.4,8.4-13.1h1.2c2.5,1.5-.4,14.3-1.7,19.7,7.7-5.3,14.4-11.9,19.7-19.7,3.1-4.2,6.6-8.6,8.3-7.6,2.4,1.4.6,7.9-.2,10.6-1.6,4.7-3.9,9.1-6.9,13,3.3,4.1,1.7,11.4-1.5,15.1,3.9,1.6,2.5,8.2-1.3,12.7,3.5,0,4.5,6.5.5,10.3h0c-1.8,1.4-5.3,3.9-23.5,16.8.5,3,.7,5.8.6,8.8-11.8,10-24.3,18.8-37.3,26.8h88.1c2.9,0,5.7-.6,8.3-1.7,2.6-1.1,5-2.7,7.1-4.7,2-2,3.6-4.4,4.7-7.1,1.1-2.6,1.6-5.5,1.6-8.3v-111.5h-.2Z"/>
  <path class="st8" d="M639.2,355.8c-3,2.1-6.1,4.1-9.3,6-.3,1.5-.2,3.1.4,4.6s1.6,2.7,2.8,3.6c1.3.9,2.8,1.4,4.4,1.4s3.1-.4,4.4-1.3c1.3-.9,2.3-2.1,3-3.5.6-1.4.8-3,.5-4.6-.3-1.5-1-3-2.1-4.1s-2.5-1.9-4-2.2h0Z"/>
  <path class="st8" d="M242.1,444.4c0,1.6-.5,3.1-1.3,4.4-.9,1.3-2.1,2.3-3.5,2.9-1.1.4-2.2.6-3.4.6s-2.3-.4-3.3-.9c-1-.6-1.9-1.3-2.6-2.3-.7-.9-1.2-2-1.4-3.2-.2-1.1-.2-2.3,0-3.4.3-1.1.8-2.2,1.6-3.1s1.7-1.6,2.7-2.1c1.1-.5,2.2-.8,3.4-.7,2.1,0,4.1.8,5.5,2.3,1.5,1.5,2.3,3.5,2.3,5.5Z"/>
  <path class="st8" d="M280.6,405.1c-9.9-1.2-19.7-2.9-29.4-5-1.6-4.9-2.6-10-3.1-15.1-7.3-1.8-14.7-2.6-22.2-2.5-16.6.5-11-3.9-5.2-5.8,6.3-2.1,21.7-5.3,15.9-9.6-3.7-1.8-6.5-3.2-8.6-4.5-4.3-1.7-8.8-3.2-13.3-4.5l-32.6,56.5h104l-5.5-9.5Z"/>
  <path class="st8" d="M564.8,234.7v22.1h123.9c3.1-4.2,6.5-8.5,8.3-7.6,1.3.7,1.6,3.5.7,7.6h13v-22.1h-145.9Z"/>
  <path class="st8" d="M447.7,279.5l-.2.2,4.6,9.3c8-2,14-5.1,14.4-11-1.1,5.3-13.5,2.8-18.8,1.4h0Z"/>
  <path class="st8" d="M482.4,378.5l-.5,6.2-14.2-11.6c4.8,2,9.7,3.8,14.7,5.4Z"/>
  <path class="st8" d="M387.4,391.3c2.2-1.5,4.6-3.1,7.2-4.9l1.5-22.8-8.7,27.8h0Z"/>
  <path class="st8" d="M411.9,509.9c-3.6-6.2-6.2-13-7.7-20.1l9.9,54.1c2.5-4.6,4.9-9.3,7.2-14.2l-9.4-19.9h0Z"/>
  <path class="st8" d="M401.8,399.4c-9.5-3.4-10.5-8-1.4-11.6l1.4,11.6Z"/>
  <path class="st8" d="M475.2,387.8l-1.9,11.7c5-1.8,8-3.9,8-6.2s-2.2-3.9-6.1-5.5Z"/>
  <path class="st8" d="M186.1,582.3l-14.6.9c3.8-8.9,9.7-9.4,14.6-.9Z"/>
  <path class="st8" d="M189.9,638.5c-3.5,9.2-9.2,11.2-14.5,3.1,4.8-1.4,9.6-2.4,14.5-3.1Z"/>
  <path class="st8" d="M95.3,691.7c-7.8-3.2-4.9-16.4-.3-28.4,8.2-21.4,26.3-51.5,42.1-67.6,11.8-12,24.4-16.3,23.4-1.9-1.9,26.2-48.3,101-65.2,98h0Z"/>
  <path class="st1" d="M450.2,239.7c-.4-2.1-1.5-4-3-5.5-1.6-1.5-3.5-2.4-5.7-2.7.5-1.7.5-3.6,0-5.3-.4-1.8-1.3-3.4-2.6-4.7-1.3-1.3-2.8-2.2-4.6-2.7-1.7-.5-3.6-.5-5.3,0-.2-1.8-.9-3.6-2-5.1s-2.6-2.6-4.3-3.3c-1.7-.7-3.6-.9-5.4-.7-1.8.3-3.6,1-5,2.2-.6-1.3-1.5-2.4-2.6-3.3s-2.3-1.6-3.7-2c-1.4-.4-2.8-.5-4.2-.3-1.4.2-2.8.6-4,1.4-1.6,1-2.9,2.4-3.8,4-1.4-1.2-3.1-2-4.9-2.3s-3.7,0-5.4.5c-1.7.7-3.3,1.8-4.4,3.2-1.1,1.4-1.9,3.2-2.1,5-1.7-.5-3.6-.5-5.3,0-1.8.4-3.4,1.3-4.7,2.6s-2.2,2.8-2.7,4.6c-.5,1.7-.5,3.6,0,5.3-1.8.2-3.6.9-5,2-1.5,1.1-2.6,2.6-3.3,4.3-.7,1.7-.9,3.6-.7,5.4.3,1.8,1,3.5,2.2,5-1.7.8-3.1,2.1-4.1,3.7s-1.5,3.4-1.6,5.3c0,1.9.5,3.7,1.4,5.4,1,1.6,2.4,2.9,4,3.8-1.2,1.4-2,3.1-2.4,4.9-.3,1.8-.2,3.7.5,5.4.6,1.7,1.8,3.3,3.2,4.4,1.4,1.2,3.2,1.9,5,2.2-.5,1.7-.5,3.6,0,5.3.4,1.8,1.3,3.4,2.6,4.7,1.3,1.3,2.8,2.2,4.6,2.7,1.7.5,3.6.5,5.3,0,.2,1.8.9,3.6,2,5.1s2.6,2.6,4.3,3.3c1.7.7,3.6.9,5.4.7,1.8-.3,3.6-1,5-2.2.8,1.7,2.1,3.1,3.7,4.1s3.4,1.5,5.3,1.6c1.9,0,3.7-.5,5.4-1.4,1.6-1,3-2.4,3.8-4,1.4,1.2,3.1,2,4.9,2.4,1.8.3,3.7.2,5.4-.5,1.7-.6,3.3-1.8,4.4-3.2,1.2-1.4,1.9-3.2,2.2-5,1.5.4,3,.5,4.5.2s2.9-.8,4.2-1.7c2.4-10.6,4.3-21.3,5.5-32.1-12.6-7.7-6.3-18.3.2-11.8s3.1-4,.8-9.6c2.2-.9,4.6-1.3,7-1.2h0Z"/>
  <path class="st2" d="M49.2,823.4h714.2"/>
  <path class="st2" d="M496.4,477.8c5.2,0,10.1-2,13.7-5.7s5.7-8.6,5.7-13.7v-71.5"/>
  <path class="st2" d="M355.3,406.2v52c0,4.5,1.6,8.9,4.5,12.4"/>
  <path class="st2" d="M317.3,545.6v-101.9"/>
  <path class="st2" d="M483.8,661.2h-135.2c-6.2,0-12.3-1.8-17.5-5.3s-9.2-8.4-11.5-14.1"/>
  <path class="st2" d="M553.9,392.1v237.7c0,1.4,0,2.9-.3,4.3"/>
  <path class="st2" d="M553.6,209.4c-1-7.5-4.8-14.3-10.5-19.2-5.8-4.9-13.1-7.4-20.6-7.2h-173.8c-4.1-.1-8.1.5-11.9,2-3.8,1.4-7.3,3.6-10.2,6.5-2.9,2.8-5.3,6.2-6.9,9.9s-2.4,7.7-2.5,11.8v100"/>
  <path class="st2" d="M333.7,353.8v-19.6c0-2.9-.6-5.7-1.6-8.3-1.1-2.6-2.7-5-4.7-7.1-2-2-4.4-3.6-7.1-4.7-2.6-1.1-5.5-1.7-8.3-1.6h-155.3c-2.9,0-5.7.6-8.3,1.6s-5,2.7-7.1,4.7c-2,2-3.6,4.4-4.7,7.1-1.1,2.6-1.7,5.5-1.6,8.3v88.4c0,2.9.6,5.7,1.6,8.3,1.1,2.6,2.7,5,4.7,7.1,2,2,4.4,3.6,7.1,4.7,2.6,1.1,5.5,1.6,8.3,1.6h69.8M333.7,407.8v14.9c0,2.9-.6,5.7-1.6,8.3-1.1,2.6-2.7,5-4.7,7.1-2,2-4.4,3.6-7.1,4.7-2.6,1.1-5.5,1.7-8.3,1.6h-70.1"/>
  <path class="st2" d="M630.1,361.9c0,.5-.1,1.1-.2,1.6,0,1,.2,2.1.6,3,.4,1,1,1.8,1.7,2.6.7.7,1.6,1.3,2.5,1.7s2,.6,3,.6c2.1,0,4.1-.8,5.6-2.3s2.3-3.5,2.3-5.6-.6-3.5-1.8-4.9c-1.1-1.4-2.7-2.3-4.5-2.7"/>
  <path class="st2" d="M221.6,346.1l2.2-3.9,3.7,6.4"/>
  <path class="st2" d="M269.5,347.3c.8-1.7,2.2-3.1,3.8-4,1.7-.9,3.6-1.2,5.5-.9,1.9.3,3.6,1.2,5,2.5,1.3,1.4,2.2,3.1,2.5,5-5.8-.8-11.4-1.6-16.8-2.5h0Z"/>
  <path class="st2" d="M280.6,405.2l5.5,9.4h-104l32.6-56.5"/>
  <path class="st2" d="M538.3,331.1v-100.8c0-4.3,1.3-8.5,3.7-12.1s5.8-6.4,9.8-8c2.6-1.1,5.5-1.7,8.3-1.7h155.4c4.3,0,8.5,1.3,12.1,3.7s6.4,5.8,8,9.8c1.1,2.6,1.7,5.5,1.6,8.3v111.5c0,4.3-1.3,8.5-3.7,12.1-2.4,3.6-5.8,6.4-9.8,8-2.6,1.1-5.5,1.7-8.3,1.6h-69.7"/>
  <path class="st2" d="M572.5,208.5c0-11.7-4.7-22.8-13-31.1-8.3-8.2-19.5-12.9-31.1-12.9h-186.2c-5.8,0-11.5,1.1-16.9,3.4-5.4,2.2-10.2,5.5-14.3,9.6-4.1,4.1-7.3,9-9.6,14.3-2.2,5.4-3.4,11.1-3.4,16.9v103.8"/>
  <path class="st2" d="M298,566.8v-122.4"/>
  <path class="st2" d="M492.3,679.1h-150.2c-10.1,0-20-3.5-27.8-9.9-7.9-6.4-13.3-15.3-15.4-25.2"/>
  <path class="st2" d="M572.5,392.1v242.9c0,9.6-3.1,18.9-8.9,26.5"/>
  <path class="st2" d="M688.7,256.9h-124v-22.1h145.9v22.1h-12.9"/>
  <path class="st2" d="M670.8,268.8h7.9"/>
  <path class="st2" d="M564.8,333v-64.2h96.9"/>
  <path class="st2" d="M692.7,268.8h18v68.5h-46.6"/>
  <path class="st2" d="M637.7,371.4v80.9c0,6.9-1.3,13.7-4,20-2.6,6.3-6.5,12.1-11.3,17-4.9,4.9-10.6,8.7-17,11.3-6.3,2.6-13.1,4-20,4h-78.8"/>
  <path class="st2" d="M344.9,504.5h-58.3c-13.9,0-27.2-5.5-37-15.3s-15.3-23.1-15.3-37"/>
  <path class="st3" d="M252.2,668v29"/>
  <path class="st3" d="M266.7,682.5h-29"/>
  <path class="st2" d="M466.7,278.1c-1.3,5.2-12.6,2.9-16.4,2l-2.8-.7c2.4,5.5,4.7,9.6,4.7,9.6"/>
  <path class="st2" d="M484.4,314.9c-7.7-2.8-15.1-6.2-22.3-10.3-2-1.1-3.8-2.6-5.3-4.4-1.4-1.8-2.5-3.8-3.1-6.1-.5-1.7-1-3.5-1.5-5.2,7-1.7,13.5-4.3,14.5-11,1.2-8-5.5-20.1-16.3-38.4-2.5,0-4.9.3-7.2,1.2,2.2,5.6,3,13.4-.8,9.6-6.5-6.5-12.8,4.1-.2,11.8-.6,6.4-1.6,12.3-2.7,18.3-.6,4.6-1.5,9.2-2.8,13.7-1.5,3.1-3.7,5.8-6.4,8s-5.9,3.6-9.3,4.4c-6,1.7-11.7,4.3-17,7.6,31.9,15.9,80.4.5,80.4.5h0v.3Z"/>
  <path class="st2" d="M481.9,384.8l-14.2-11.7c4.8,2,9.6,3.8,14.6,5.4"/>
  <path class="st2" d="M481.3,393.3c.7-10.2.5-6.8,1-14.8,26,7.9,52.9,12.7,80.1,14.3,6,.4,11.9-.8,17.3-3.4,30.3-14.7,59.2-30.9,85-52.7.6-20.6-14.1-43.3-31.8-47.6-23.3,20.2-46.3,35.9-71.6,45.3-2.7,1-43.9-5.8-77-19.5"/>
  <path class="st2" d="M387.4,391.3l8.7-27.8-1.5,22.8"/>
  <path class="st2" d="M394.1,393.1l.5-6.7c-12.8,9.5-27.2,16.6-42.5,20.9-33.8,2.3-67.7,0-100.8-7.1-6.1-19.4-4.2-38.5,9.2-54.5,29.4,5.5,59.4,8.3,89.4,8.3,21.7-12.8,37.3-29.4,54.1-39.6"/>
  <path class="st2" d="M403.8,417.2s-38.4,23.9-53.6,79.3l-46.2,69.1c-36.9,8.2-79.6,10.9-125.3,10.7"/>
  <path class="st2" d="M414,544.1l-9.9-54.1"/>
  <path class="st2" d="M410,447.2c-5.2,9.6-7.7,20.3-7.5,31.2s3.3,21.5,8.8,30.8c.4.6,9.9,20.7,9.9,20.7"/>
  <path class="st2" d="M189.9,638.5c-19,2.7-38.3,10.1-51.5,26.6-12.7,15.9-34.4,32.7-45.1,25.9"/>
  <path class="st2" d="M400.4,387.7l3.4,29.5c21.8-5.6,44.7-5.6,66.6,0l4.9-29.4"/>
  <path class="st2" d="M473.3,399.5c5-1.8,8-3.9,8-6.2s-2.2-3.9-6-5.5c-16.8-7-57.9-7-74.9,0-2.8,1.1-7.1,3.4-6.3,6.3.5,2,3.3,3.9,7.6,5.4"/>
  <path class="st2" d="M680.8,281.9c1.7-1.7,6.7-6.2,9.2-9"/>
  <path class="st2" d="M662.3,280.8c2.5-1.5,4.8-2.8,6.8-4.2"/>
  <path class="st2" d="M688.5,288l-7.6,6.7"/>
  <path class="st2" d="M681.4,306.1s4.4-4.1,5.7-5.3"/>
  <path class="st2" d="M182.1,646.6c44.7,2.2,89.4.7,133.9-4.4,9.9-1.1,19.4-4.2,28.1-9.1,8.7-4.9,16.2-11.4,22.3-19.3,17.7-22,33.7-45.3,47.7-69.8l7.2-14.3,118.2,248.4c25.2.7,43.9-2.1,64.7-16.9-55.4-123.8-75.8-215.4-133.8-344.2-17,0-34.8-2.6-41.6-3.8-7.5-.7-24.5.4-32.6,10.2-10.2,12.2-30.6,28.6-36.7,44.9-4.9,13.1-12.3,25.8-15.4,30.6l-41.8,67.4"/>
  <path class="st2" d="M593.8,767.9l8.8,17.4c18.2,5.3,38.6,19.6,52.4,31.3.6.5,1,1.2,1.2,1.9.2.8.2,1.6-.1,2.3-.3.7-.8,1.4-1.4,1.8s-1.4.7-2.2.7c-39.2,0-66.7-.4-98.2-.5-1.2,0-2.3-.3-3.4-.7-1.1-.5-2-1.1-2.8-2s-1.4-1.9-1.8-3c-.4-1.1-.5-2.3-.4-3.4.8-9.7,2.9-19.3,6.2-28.5l-4.2-6.9"/>
  <path class="st2" d="M175.5,641.5c3,4.6,6.1,5.9,8.9,4.6,7.3-3.4,8.9-21.5,8.9-29.7,0-12.1-3.7-38.6-13.8-40.2-2.9-.4-5.8,1.9-7.9,6.9"/>
  <path class="st2" d="M150.7,585.7c-5,2.5-9.7,5.9-13.6,9.9-14.4,15-26.1,32.3-34.7,51.2-7.9,16.7-12.9,33.1-11.1,40.6,1.2,5.2,5.5,5.4,10.2,2.8,23-12.5,69.3-93.8,57-104.3-1.1-.8-2.4-1.3-3.8-1.3s-2.7.4-3.9,1.2h0Z"/>
  <path class="st2" d="M452.1,413.8s-3.1,36.3,4.9,54.5,122.4,305.6,122.4,305.6"/>
  <path class="st2" d="M410.5,508.2c-17.3,29-36.1,57.1-56.3,84.1-12.8,16.4-33.6,20.9-54.4,22.4-35.5,2.6-71,3.2-106.6,1.8"/>
  <path class="st2" d="M242.1,444.4c0,1.6-.5,3.1-1.3,4.4-.9,1.3-2.1,2.3-3.5,2.9-1.1.4-2.2.6-3.4.6s-2.3-.4-3.3-.9c-1-.6-1.9-1.3-2.6-2.3-.7-.9-1.2-2-1.4-3.2-.2-1.1-.2-2.3,0-3.4.3-1.1.8-2.2,1.6-3.1.7-.9,1.7-1.6,2.7-2.1,1.1-.5,2.2-.8,3.4-.7,2.1,0,4.1.8,5.5,2.3,1.5,1.5,2.3,3.5,2.3,5.5Z"/>
  <path class="st2" d="M75.4,377.2l13.6,19.3,16-27.9"/>
  <path class="st2" d="M443.2,240.9c2.3,5.6,3,13.4-.8,9.6-6.5-6.5-12.8,4.1-.2,11.8-.6,6.3-1.6,12.3-2.7,18.3-.6,4.6-1.5,9.2-2.8,13.7-1.7,1.2-3.8,1.8-5.9,1.9-1,0-1.9,0-2.8-.4-.2,1.4-.7,2.7-1.4,3.9s-1.7,2.2-2.8,3-2.4,1.4-3.8,1.7-2.8.3-4.1,0c-1.8-.3-3.5-1.2-4.9-2.4-.9,1.7-2.2,3.1-3.8,4-1.6,1-3.5,1.5-5.4,1.4-1.9,0-3.7-.6-5.3-1.6-1.6-1-2.9-2.4-3.7-4.1-1.4,1.2-3.2,1.9-5,2.2s-3.7,0-5.4-.7c-1.7-.7-3.2-1.8-4.3-3.3-1.1-1.5-1.8-3.2-2-5.1-1.8.4-3.6.4-5.3,0-1.7-.5-3.3-1.4-4.6-2.7-1.3-1.3-2.2-2.9-2.6-4.7s-.4-3.6,0-5.3c-1.8-.3-3.6-1-5-2.2s-2.6-2.7-3.2-4.4c-.6-1.7-.8-3.6-.5-5.4.3-1.8,1.2-3.5,2.4-4.9-1.7-.9-3.1-2.2-4-3.8-1-1.6-1.5-3.5-1.4-5.4,0-1.9.6-3.7,1.6-5.3,1-1.6,2.4-2.9,4.1-3.7-1.1-1.4-1.9-3.2-2.2-5s0-3.7.7-5.4c.7-1.7,1.8-3.2,3.3-4.3,1.5-1.1,3.2-1.8,5-2-.4-1.8-.4-3.6,0-5.3.5-1.7,1.4-3.3,2.7-4.6s2.9-2.2,4.7-2.6c1.8-.4,3.6-.4,5.3,0,.2-1.8,1-3.6,2.1-5,1.2-1.4,2.7-2.6,4.4-3.2,1.7-.7,3.6-.8,5.4-.5s3.5,1.1,4.9,2.3c.9-1.7,2.2-3.1,3.8-4s3.5-1.5,5.4-1.4c1.9,0,3.7.6,5.3,1.6,1.6,1,2.9,2.4,3.7,4.1,1.4-1.2,3.2-1.9,5-2.2,1.8-.3,3.7,0,5.4.7s3.2,1.8,4.3,3.3,1.8,3.2,2,5c1.8-.4,3.6-.4,5.3,0,1.7.5,3.3,1.4,4.6,2.7,1.3,1.3,2.2,2.9,2.6,4.7.4,1.8.4,3.6,0,5.3,2.1.3,4.1,1.3,5.7,2.7,1.6,1.5,2.6,3.4,3,5.5-2.4,0-4.8.3-7,1.2l.2.3Z"/>
  <path class="st2" d="M653.2,149.2l-30.9,30.8"/>
  <path class="st2" d="M653.1,180.1l-30.8-30.9"/>
  <path class="st2" d="M696.8,259.9c.9-2.7,2.6-9.2.2-10.6-1.7-1-5.2,3.4-8.3,7.6-5.3,7.7-12,14.4-19.7,19.7,1.3-5.3,4.2-18.1,1.7-19.7h-1.2c-3.7,3.7-6.6,8.2-8.4,13.1-2.5,5.3-13.5,16.5-20.9,22,6.3,3.9,11.7,9.1,15.9,15.3,4.1,6.2,6.8,13.2,8,20.6,18.4-13,21.8-15.5,23.6-16.8,4-3.8,3-10.4-.5-10.3,3.8-4.5,5.3-11.1,1.4-12.7,3.1-3.8,4.8-11.1,1.5-15.1,3-3.9,5.3-8.3,6.9-13h-.2Z"/>
  <path class="st2" d="M248.2,385.1c-7.3-1.8-14.7-2.7-22.2-2.6-16.6.5-11-3.9-5.2-5.8,6.3-2.1,21.7-5.3,15.9-9.6-3.8-1.8-6.5-3.2-8.6-4.5-10.4-3.8-21.1-7-31.8-9.6-9.5-2.3-7.9-4.4-6.4-4.7,5.6-.8,11.3-.8,16.9-.2-1.2-1-2.3-2-3.4-3-10.1-9.5-9.5-13.4,5.9-5.2,13.8,7.9,28.8,13.3,44.4,16.1"/>
  <path class="st2" d="M244.5,370.6c-2.6-1.1-5.3-2.3-7.9-3.5"/>
  <path class="st2" d="M206.6,348.2c4.5,3.7,19.1,13.1,21.4,14.4"/>
  <path class="st2" d="M154.8,584.5l31.3-2.2"/>
  <path class="st4" d="M669.2,657.1c20,0,36.3-16.2,36.3-36.3s-16.2-36.3-36.3-36.3-36.3,16.2-36.3,36.3,16.2,36.3,36.3,36.3Z"/>
  <path class="st4" d="M669.2,599.1v21.8l14.5,7.3"/>
  <path class="st4" d="M190.6,156.8c20,0,36.3-16.2,36.3-36.3s-16.2-36.3-36.3-36.3-36.3,16.2-36.3,36.3,16.2,36.3,36.3,36.3Z"/>
  <path class="st6" d="M190.6,106v14.5"/>
  <path class="st6" d="M190.6,135h0"/>
  <rect class="st7" x="152.5" y="691.6" width="79.8" height="50.8" rx="2.5" ry="2.5"/>
  <path class="st5" d="M218.9,708.1c-.7-.3-4.1-1.8-7.5-.2-4.7,2.1-5.1,8-5.2,9,0,.8-.4,7.6,4.6,10.1,3.4,1.7,7,.3,7.7,0"/>
  <path class="st5" d="M202.2,714.5h12.1"/>
  <path class="st5" d="M213.1,720.5h-10.9"/>
</svg>