<svg width="21" height="21" viewBox="0 0 21 21" fill="none" xmlns="http://www.w3.org/2000/svg">
<path d="M3.5 0C1.57283 0 0 1.57283 0 3.5V17.5C0 19.4272 1.57283 21 3.5 21H17.5C19.4272 21 21 19.4272 21 17.5V3.5C21 1.57283 19.4272 0 17.5 0H3.5ZM3.5 1H17.5C18.8868 1 20 2.11317 20 3.5V17.5C20 18.8868 18.8868 20 17.5 20H3.5C2.11317 20 1 18.8868 1 17.5V3.5C1 2.11317 2.11317 1 3.5 1ZM4.54297 4.5L9.1543 11.0518L4.5 16.5H5.75L9.71875 11.8535L12.9883 16.5H16.957L11.8945 9.30664L16 4.5H14.75L11.3301 8.50488L8.51172 4.5H4.54297ZM6.45703 5.5H7.98926L15.043 15.5H13.5107L6.45703 5.5Z" fill="white"/>
</svg>
